<svg xmlns="http://www.w3.org/2000/svg" width="325" height="180" viewBox="0 0 325 180">
  <path fill="#FFF" fill-rule="evenodd" d="M161.9971,109.425 C162.6981,108.573 163.9581,108.45 164.8121,109.154 C165.6651,109.855 165.7871,111.116 165.0851,111.968 L153.8171,125.652 C153.4371,126.112 152.8711,126.38 152.2731,126.38 L122.7871,126.38 C121.6831,126.38 120.7871,125.484 120.7871,124.38 C120.7871,123.275 121.6831,122.38 122.7871,122.38 L151.3291,122.38 L161.9971,109.425 Z M146.0449,82.6409 C145.0619,82.1369 144.6739,80.9309 145.1779,79.9489 L157.5629,55.7959 C157.9039,55.1279 158.5919,54.7079 159.3419,54.7079 L171.7099,54.7079 C172.8149,54.7079 173.7099,55.6049 173.7099,56.7079 C173.7099,57.8139 172.8149,58.7079 171.7099,58.7079 L160.5639,58.7079 L148.7359,81.7739 C148.3829,82.4639 147.6819,82.8619 146.9549,82.8619 C146.6489,82.8619 146.3369,82.7899 146.0449,82.6409 Z M142.6553,60.4426 C142.6553,61.5476 141.7593,62.4426 140.6553,62.4426 L102.0003,62.4426 C100.8953,62.4426 100.0003,61.5476 100.0003,60.4426 C100.0003,59.3386 100.8953,58.4426 102.0003,58.4426 L140.6553,58.4426 C141.7593,58.4426 142.6553,59.3386 142.6553,60.4426 Z M111.6699,46.093 C110.5659,46.093 109.6699,45.198 109.6699,44.093 C109.6699,42.989 110.5659,42.093 111.6699,42.093 L150.3619,42.093 C151.4669,42.093 152.3619,42.989 152.3619,44.093 C152.3619,45.198 151.4669,46.093 150.3619,46.093 L111.6699,46.093 Z M223.918,96.8225 C225.022,96.8395 225.903,97.7495 225.887,98.8525 C225.869,99.9585 224.988,100.8675 223.856,100.8215 L198.839,100.4285 C198.27,100.4205 197.731,100.1695 197.358,99.7385 C196.985,99.3075 196.814,98.7395 196.887,98.1755 L200.045,73.5945 C200.37,70.8045 200.772,61.4765 192.159,59.5845 C186.807,58.4035 181.229,61.8805 179.477,67.4895 L171.327,93.5515 C170.547,96.0455 170.789,98.7765 171.988,101.0935 L193.329,121.1865 C194.812,122.6905 195.667,124.6005 195.79,126.6205 C196.31,135.1585 196.383,161.2315 196.386,162.3375 C196.389,163.4415 195.495,164.3395 194.391,164.3435 L194.386,164.3435 C193.283,164.3435 192.389,163.4505 192.386,162.3475 C192.385,162.0775 192.31,135.2855 191.798,126.8635 C191.733,125.8095 191.284,124.8095 190.533,124.0465 L169.01,103.7825 C168.86,103.6415 168.733,103.4775 168.633,103.2985 C166.783,99.9735 166.373,95.9855 167.51,92.3565 L175.658,66.2965 C178.025,58.7235 185.654,54.0615 193.018,55.6765 C200.803,57.3875 205.119,64.6125 204.015,74.0825 L201.139,96.4645 L223.918,96.8225 Z M193.2598,26.8039 C194.5548,22.6599 198.3928,19.9989 202.5218,19.9989 C203.4778,19.9989 204.4488,20.1419 205.4088,20.4419 C207.8808,21.2139 209.9048,22.9039 211.1068,25.1989 C212.3078,27.4929 212.5438,30.1179 211.7708,32.5909 C210.9978,35.0629 209.3088,37.0859 207.0138,38.2879 C204.7198,39.4899 202.0968,39.7259 199.6208,38.9529 C194.5188,37.3569 191.6638,31.9079 193.2598,26.8039 M198.4278,42.7709 C199.7768,43.1929 201.1558,43.4019 202.5308,43.4019 C204.7138,43.4019 206.8788,42.8729 208.8688,41.8309 C212.1108,40.1339 214.4968,37.2769 215.5888,33.7839 C216.6808,30.2919 216.3468,26.5849 214.6498,23.3429 C212.9518,20.1029 210.0948,17.7159 206.6028,16.6239 C199.3938,14.3719 191.6958,18.4039 189.4418,25.6109 C187.1888,32.8179 191.2198,40.5169 198.4278,42.7709"/>
</svg>
