<svg xmlns="http://www.w3.org/2000/svg" xmlns:xlink="http://www.w3.org/1999/xlink" width="325" height="180" viewBox="0 0 325 180">
  <defs>
    <polygon id="series12-icon-2-a" points="0 .293 61.619 .293 61.619 98 0 98"/>
    <polygon id="series12-icon-2-c" points="0 108.512 101.293 108.512 101.293 0 0 0"/>
  </defs>
  <g fill="none" fill-rule="evenodd" transform="translate(112 36)">
    <path fill="#FFF" d="M30.8096,81.7874 C29.7056,81.7874 28.8096,80.8914 28.8096,79.7874 L28.8096,61.0594 C28.8096,59.9554 29.7056,59.0594 30.8096,59.0594 C31.9136,59.0594 32.8096,59.9554 32.8096,61.0594 L32.8096,79.7874 C32.8096,80.8914 31.9136,81.7874 30.8096,81.7874"/>
    <path fill="#FFF" d="M40.1738,72.4231 L21.4458,72.4231 C20.3418,72.4231 19.4458,71.5271 19.4458,70.4231 C19.4458,69.3191 20.3418,68.4231 21.4458,68.4231 L40.1738,68.4231 C41.2778,68.4231 42.1738,69.3191 42.1738,70.4231 C42.1738,71.5271 41.2778,72.4231 40.1738,72.4231"/>
    <g transform="translate(0 10.512)">
      <mask id="series12-icon-2-b" fill="#fff">
        <use xlink:href="#series12-icon-2-a"/>
      </mask>
      <path fill="#FFF" d="M4,85.4902 C4.942,90.1982 9.179,94.0002 13.521,94.0002 L48.145,94.0002 C52.502,94.0002 56.719,90.2012 57.619,85.4992 L57.619,33.0522 C56.807,26.4482 45.203,19.7482 40.778,17.7142 C40.068,17.3872 39.613,16.6772 39.613,15.8962 L39.613,4.2932 L22.007,4.2932 L22.007,15.8962 C22.007,16.6932 21.533,17.4152 20.802,17.7312 C16.397,19.6412 4.841,26.0992 4,33.0512 L4,85.4902 Z M48.145,98.0002 L13.521,98.0002 C7.182,98.0002 1.257,92.7462 0.032,86.0392 C0.011,85.9202 0,85.8002 0,85.6792 L0,32.9372 C0,32.8672 0.004,32.7972 0.011,32.7262 C0.991,23.5022 13.918,16.5852 18.007,14.6172 L18.007,2.2932 C18.007,1.1882 18.902,0.2932 20.007,0.2932 L41.613,0.2932 C42.718,0.2932 43.613,1.1882 43.613,2.2932 L43.613,14.6392 C47.833,16.7412 60.657,23.8252 61.607,32.7252 C61.615,32.7962 61.619,32.8662 61.619,32.9372 L61.619,85.6792 C61.619,85.7952 61.609,85.9102 61.59,86.0232 C60.418,92.7392 54.513,98.0002 48.145,98.0002 Z" mask="url(#series12-icon-2-b)"/>
    </g>
    <mask id="series12-icon-2-d" fill="#fff">
      <use xlink:href="#series12-icon-2-c"/>
    </mask>
    <path fill="#FFF" d="M18.404 10.805L43.214 10.805 43.214 4 18.404 4 18.404 10.805zM45.214 14.805L16.404 14.805C15.3 14.805 14.404 13.909 14.404 12.805L14.404 2C14.404.896 15.3 0 16.404 0L45.214 0C46.318 0 47.214.896 47.214 2L47.214 12.805C47.214 13.909 46.318 14.805 45.214 14.805zM4 86.43L57.619 86.43 57.619 54.417 4 54.417 4 86.43zM59.619 90.43L2 90.43C.896 90.43 0 89.534 0 88.43L0 52.417C0 51.313.896 50.417 2 50.417L59.619 50.417C60.724 50.417 61.619 51.313 61.619 52.417L61.619 88.43C61.619 89.534 60.724 90.43 59.619 90.43zM90.2295 64.6653C86.3345 64.6653 83.1675 67.8343 83.1675 71.7293L83.1675 89.8533C83.1675 93.7483 86.3345 96.9163 90.2295 96.9163 94.1245 96.9163 97.2925 93.7483 97.2925 89.8533L97.2925 71.7293C97.2925 67.8343 94.1245 64.6653 90.2295 64.6653M90.2295 100.9163C84.1295 100.9163 79.1665 95.9533 79.1665 89.8533L79.1665 71.7293C79.1665 65.6293 84.1295 60.6653 90.2295 60.6653 96.3305 60.6653 101.2925 65.6293 101.2925 71.7293L101.2925 89.8533C101.2925 95.9533 96.3305 100.9163 90.2295 100.9163" mask="url(#series12-icon-2-d)"/>
    <path fill="#FFF" d="M99.292,82.7913 L81.167,82.7913 C80.063,82.7913 79.167,81.8953 79.167,80.7913 C79.167,79.6873 80.063,78.7913 81.167,78.7913 L99.292,78.7913 C100.396,78.7913 101.292,79.6873 101.292,80.7913 C101.292,81.8953 100.396,82.7913 99.292,82.7913" mask="url(#series12-icon-2-d)"/>
  </g>
</svg>
