<svg xmlns="http://www.w3.org/2000/svg" width="325" height="180" viewBox="0 0 325 180">
  <path fill="#FFF" fill-rule="evenodd" d="M208.1807,104.3034 C202.1607,99.3374 197.1747,92.3474 191.9237,84.9414 C178.8157,66.4524 162.5337,43.5294 119.7387,38.6614 L120.6847,30.2254 C162.4757,35.5564 198.9417,62.2884 216.6287,100.5584 L208.1807,104.3034 Z M161.0277,125.2074 C158.9737,121.1934 159.0927,116.5064 161.4077,112.5674 C163.7967,108.5014 168.0357,106.0744 172.7447,106.0744 C178.2327,106.0744 183.1087,109.4664 185.0447,114.5604 L161.0277,125.2074 Z M110.3887,122.1024 C110.4997,122.1014 110.6107,122.0924 110.7237,122.0734 C118.9187,120.6164 124.8677,113.5094 124.8677,105.1734 C124.8677,98.2554 120.7507,92.0444 114.3767,89.3524 C114.2757,89.3094 114.1727,89.2824 114.0697,89.2574 L119.2937,42.6354 C160.2957,47.2854 175.3607,68.4954 188.6607,87.2534 C193.6387,94.2774 198.3767,100.9584 204.1077,106.1094 L188.7037,112.9384 C186.1287,106.4084 179.8267,102.0744 172.7447,102.0744 C166.6027,102.0744 161.0747,105.2384 157.9597,110.5404 C154.9797,115.6114 154.7737,121.6414 157.3527,126.8374 L107.3757,148.9934 L110.3887,122.1024 Z M113.6047,93.4034 C118.0427,95.6284 120.8677,100.1574 120.8677,105.1734 C120.8677,111.2804 116.7027,116.5174 110.8547,117.9484 L113.6047,93.4034 Z M221.1097,100.7604 C202.9057,59.6114 163.8337,30.9684 119.1417,26.0134 C118.0477,25.8884 117.0567,26.6814 116.9337,27.7794 L103.0127,152.0134 C102.9327,152.7244 103.2397,153.4254 103.8177,153.8494 C104.1667,154.1044 104.5817,154.2364 105.0007,154.2364 C105.2747,154.2364 105.5517,154.1794 105.8107,154.0644 L208.7137,108.4424 L208.7197,108.4394 L220.0917,103.3984 C221.1007,102.9504 221.5567,101.7694 221.1097,100.7604 Z M147.5246,93.1911 C140.2646,93.1911 134.3576,87.2831 134.3576,80.0211 C134.3576,72.7611 140.2646,66.8531 147.5246,66.8531 C154.7846,66.8531 160.6916,72.7611 160.6916,80.0211 C160.6916,87.2831 154.7846,93.1911 147.5246,93.1911 M164.6916,80.0211 C164.6916,70.5551 156.9906,62.8531 147.5246,62.8531 C138.0586,62.8531 130.3576,70.5551 130.3576,80.0211 C130.3576,89.4881 138.0586,97.1911 147.5246,97.1911 C156.9906,97.1911 164.6916,89.4881 164.6916,80.0211"/>
</svg>
