<svg xmlns="http://www.w3.org/2000/svg" xmlns:xlink="http://www.w3.org/1999/xlink" width="200" height="180" viewBox="0 0 200 180">
  <defs>
    <polygon id="series10-icon-3-a" points=".99 .196 29.486 .196 29.486 78 .99 78"/>
  </defs>
  <g fill="none" fill-rule="evenodd" transform="translate(59 21)">
    <path fill="#FFF" d="M41.4258 59.0661C39.3508 59.0661 37.2768 58.2761 35.6968 56.6981 35.1968 56.1971 35.1958 55.3851 35.6968 54.8841 36.1978 54.3821 37.0098 54.3831 37.5098 54.8831 39.6698 57.0421 43.1808 57.0411 45.3408 54.8831 45.8408 54.3831 46.6528 54.3821 47.1548 54.8841 47.6548 55.3851 47.6548 56.1971 47.1538 56.6981 45.5738 58.2761 43.4998 59.0661 41.4258 59.0661M42.4951 50.6276L40.3561 50.6276C39.6481 50.6276 39.0741 50.0536 39.0741 49.3456 39.0741 48.6376 39.6481 48.0636 40.3561 48.0636L42.4951 48.0636C43.2031 48.0636 43.7771 48.6376 43.7771 49.3456 43.7771 50.0536 43.2031 50.6276 42.4951 50.6276"/>
    <path fill="#FFF" d="M40.9961 67.3659C27.7051 67.3659 16.8921 56.5529 16.8921 43.2619 16.8921 42.5539 17.4671 41.9799 18.1751 41.9799 18.8831 41.9799 19.4571 42.5539 19.4571 43.2619 19.4571 55.1389 29.1191 64.8019 40.9961 64.8019 42.3801 64.8019 43.7661 64.6689 45.1141 64.4079 55.2091 62.4549 62.5351 53.5619 62.5351 43.2619 62.5351 42.5539 63.1091 41.9799 63.8171 41.9799 64.5251 41.9799 65.1001 42.5539 65.1001 43.2619 65.1001 54.7879 56.8991 64.7399 45.6011 66.9259 44.0931 67.2189 42.5431 67.3659 40.9961 67.3659M34.2705 26.8171C34.0065 26.8171 33.7415 26.7361 33.5115 26.5681 28.5815 22.9451 25.7985 17.3411 25.4665 10.3641 25.2205 5.1811 26.3975 1.0931 26.4485.9221 26.6465.2431 27.3595-.1469 28.0385.0521 28.7175.2511 29.1075.9631 28.9105 1.6421 28.8985 1.6801 27.7925 5.5481 28.0335 10.3161 28.3465 16.5471 30.7015 21.3201 35.0315 24.5021 35.6015 24.9211 35.7245 25.7231 35.3045 26.2951 35.0535 26.6361 34.6655 26.8171 34.2705 26.8171M42.1709 26.8171C41.9069 26.8171 41.6419 26.7361 41.4119 26.5681 36.4819 22.9451 33.6989 17.3411 33.3669 10.3641 33.1209 5.1801 34.2979 1.0931 34.3489.9221 34.5469.2431 35.2609-.1469 35.9389.0521 36.6179.2511 37.0079.9631 36.8109 1.6421 36.7989 1.6801 35.6929 5.5481 35.9329 10.3161 36.2469 16.5471 38.6019 21.3201 42.9319 24.5021 43.5019 24.9211 43.6249 25.7231 43.2049 26.2951 42.9539 26.6361 42.5659 26.8171 42.1709 26.8171M51.1992 26.8171C50.9352 26.8171 50.6702 26.7361 50.4402 26.5681 45.5102 22.9451 42.7282 17.3411 42.3962 10.3641 42.1502 5.1801 43.3272 1.0931 43.3782.9221 43.5762.2431 44.2912-.1469 44.9682.0521 45.6472.2511 46.0372.9631 45.8402 1.6421 45.8282 1.6801 44.7222 5.5481 44.9622 10.3161 45.2752 16.5471 47.6302 21.3201 51.9602 24.5021 52.5302 24.9211 52.6532 25.7231 52.2332 26.2951 51.9822 26.6361 51.5942 26.8171 51.1992 26.8171"/>
    <path fill="#FFF" d="M46.7822 42.6931L54.7262 42.6931C61.0642 42.6931 66.2962 37.8671 66.9392 31.6961L54.8542 31.6961C50.4032 31.6961 46.7822 35.3181 46.7822 39.7691L46.7822 42.6931zM54.7262 45.2571L44.2182 45.2571 44.2182 39.7691C44.2182 33.9031 48.9892 29.1311 54.8542 29.1311L69.5702 29.1311 69.5702 30.4141C69.5702 38.5981 62.9112 45.2571 54.7262 45.2571zM15.8623 32.4489C16.5063 38.6199 21.7373 43.4459 28.0753 43.4459L36.0183 43.4459 36.0183 40.5219C36.0183 36.0709 32.3973 32.4489 27.9473 32.4489L15.8623 32.4489zM38.5833 46.0109L28.0753 46.0109C19.8903 46.0109 13.2313 39.3509 13.2313 31.1669L13.2313 29.8849 27.9473 29.8849C33.8113 29.8849 38.5833 34.6559 38.5833 40.5219L38.5833 46.0109zM10.3926 125.4899C10.1046 125.4899 9.8156 125.3929 9.5766 125.1959 9.0306 124.7439 8.9546 123.9349 9.4056 123.3899L27.1256 101.9789 23.7886 66.3929C23.7236 65.6869 24.2416 65.0619 24.9466 64.9959 25.6626 64.9439 26.2776 65.4489 26.3436 66.1529L29.7786 102.7979 11.3816 125.0249C11.1276 125.3319 10.7616 125.4899 10.3926 125.4899M71.9951 125.4899C71.6261 125.4899 71.2601 125.3319 71.0061 125.0249L52.6101 102.7979 52.6591 102.2679 56.0451 66.1529C56.1111 65.4479 56.7481 64.9379 57.4421 64.9959 58.1471 65.0619 58.6651 65.6869 58.5991 66.3929L55.2631 101.9789 72.9821 123.3899C73.4331 123.9349 73.3571 124.7439 72.8111 125.1959 72.5721 125.3929 72.2831 125.4899 71.9951 125.4899"/>
    <path fill="#FFF" d="M1.2822,137.904 C0.5742,137.904 0.0002,137.33 0.0002,136.622 L0.0002,65.493 C0.0002,62.519 2.4192,60.1 5.3922,60.1 L27.3502,60.1 C28.0582,60.1 28.6332,60.675 28.6332,61.383 C28.6332,62.091 28.0582,62.665 27.3502,62.665 L5.3922,62.665 C3.8332,62.665 2.5642,63.933 2.5642,65.493 L2.5642,136.622 C2.5642,137.33 1.9902,137.904 1.2822,137.904"/>
    <g transform="translate(53 59.904)">
      <mask id="series10-icon-3-b" fill="#fff">
        <use xlink:href="#series10-icon-3-a"/>
      </mask>
      <path fill="#FFF" d="M28.2041,78 C27.4961,78 26.9221,77.426 26.9221,76.718 L26.9221,5.589 C26.9221,4.029 25.6531,2.761 24.0951,2.761 L2.2721,2.761 C1.5641,2.761 0.9901,2.187 0.9901,1.479 C0.9901,0.771 1.5641,0.196 2.2721,0.196 L24.0951,0.196 C27.0671,0.196 29.4861,2.615 29.4861,5.589 L29.4861,76.718 C29.4861,77.426 28.9121,78 28.2041,78" mask="url(#series10-icon-3-b)"/>
    </g>
    <path fill="#FFF" d="M45.5 40.447L37.301 40.447C36.593 40.447 36.019 39.873 36.019 39.165 36.019 38.457 36.593 37.883 37.301 37.883L45.5 37.883C46.208 37.883 46.782 38.457 46.782 39.165 46.782 39.873 46.208 40.447 45.5 40.447M14.8252 119.6999C14.1172 119.6999 13.5432 119.1259 13.5432 118.4179L13.5432 86.3149C13.5432 85.6069 14.1172 85.0329 14.8252 85.0329 15.5332 85.0329 16.1072 85.6069 16.1072 86.3149L16.1072 118.4179C16.1072 119.1259 15.5332 119.6999 14.8252 119.6999M67.4932 120.2009C66.7852 120.2009 66.2112 119.6269 66.2112 118.9189L66.2112 86.8169C66.2112 86.1089 66.7852 85.5349 67.4932 85.5349 68.2012 85.5349 68.7752 86.1089 68.7752 86.8169L68.7752 118.9189C68.7752 119.6269 68.2012 120.2009 67.4932 120.2009"/>
  </g>
</svg>
