<svg xmlns="http://www.w3.org/2000/svg" width="325" height="180" viewBox="0 0 325 180">
  <g fill="none" fill-rule="evenodd">
    <path fill="#FFF" d="M148.6846,88.5283 C145.3826,88.5283 142.6966,85.8413 142.6966,82.5393 C142.6966,79.2373 145.3826,76.5503 148.6846,76.5503 C151.9876,76.5503 154.6736,79.2373 154.6736,82.5393 C154.6736,85.8413 151.9876,88.5283 148.6846,88.5283 Z M178.1084,88.5283 C174.8064,88.5283 172.1204,85.8413 172.1204,82.5393 C172.1204,79.2373 174.8064,76.5503 178.1084,76.5503 C181.4104,76.5503 184.0964,79.2373 184.0964,82.5393 C184.0964,85.8413 181.4104,88.5283 178.1084,88.5283 Z M103.1846,123.9497 C103.1856,122.6277 104.2606,121.5527 105.5806,121.5527 C106.9046,121.5527 107.9816,122.6287 107.9816,123.9517 C107.9816,124.5927 107.7326,125.1937 107.2806,125.6457 C106.8276,126.0987 106.2246,126.3477 105.5846,126.3477 C104.2616,126.3467 103.1856,125.2717 103.1846,123.9497 Z M105.5836,130.3477 C102.0566,130.3467 99.1856,127.4767 99.1846,123.9507 L99.1846,123.9487 C99.1856,120.4217 102.0556,117.5527 105.5806,117.5527 C109.1106,117.5527 111.9816,120.4227 111.9816,123.9507 C111.9826,125.6597 111.3176,127.2657 110.1086,128.4747 C108.9006,129.6827 107.2926,130.3477 105.5836,130.3477 M219.0137,122.6675 C217.6907,122.6675 216.6147,123.7435 216.6147,125.0655 C216.6147,126.3875 217.6907,127.4625 219.0127,127.4625 C220.3337,127.4615 221.4097,126.3865 221.4107,125.0635 C221.4097,123.7425 220.3347,122.6675 219.0137,122.6675 M219.0137,131.4625 C215.4847,131.4625 212.6147,128.5935 212.6147,125.0655 C212.6147,121.5375 215.4857,118.6675 219.0137,118.6675 C222.5397,118.6675 225.4097,121.5365 225.4107,125.0635 L225.4107,125.0645 C225.4097,128.5915 222.5397,131.4615 219.0137,131.4625 Z M163.8896,160.6675 C167.0176,160.6675 169.5636,163.2135 169.5656,166.3425 C169.5636,169.4725 167.0156,172.0205 163.8866,172.0215 C162.3696,172.0215 160.9446,171.4305 159.8726,170.3575 C158.8006,169.2865 158.2106,167.8605 158.2106,166.3455 C158.2106,163.2145 160.7586,160.6675 163.8896,160.6675 Z M163.8876,176.0215 C161.3016,176.0215 158.8716,175.0145 157.0436,173.1875 C155.2166,171.3585 154.2096,168.9295 154.2106,166.3455 C154.2106,161.0095 158.5526,156.6675 163.8896,156.6675 C169.2226,156.6675 173.5626,161.0075 173.5656,166.3415 L173.5656,166.3435 C173.5626,171.6775 169.2216,176.0185 163.8876,176.0215 Z M162.3955,34.939 C163.7175,34.941 164.7935,36.018 164.7945,37.338 C164.7945,37.979 164.5455,38.582 164.0925,39.035 C163.6405,39.487 163.0405,39.736 162.3995,39.736 L162.3975,39.736 C161.0755,39.736 159.9995,38.66 159.9995,37.336 C159.9995,36.016 161.0745,34.941 162.3955,34.939 Z M162.4015,43.736 L162.3955,43.736 C158.8695,43.736 155.9995,40.865 155.9995,37.336 C155.9995,33.812 158.8685,30.942 162.3935,30.939 L162.3975,30.939 C165.9215,30.942 168.7915,33.812 168.7945,37.336 C168.7945,39.047 168.1295,40.654 166.9205,41.863 C165.7135,43.071 164.1085,43.736 162.4015,43.736"/>
    <path fill="#FFF" d="M127.921,140.54 L198.873,140.54 L198.873,112.54 L127.921,112.54 L127.921,140.54 Z M200.873,144.54 L125.921,144.54 C124.816,144.54 123.921,143.644 123.921,142.54 L123.921,110.54 C123.921,109.435 124.816,108.54 125.921,108.54 L200.873,108.54 C201.978,108.54 202.873,109.435 202.873,110.54 L202.873,142.54 C202.873,143.644 201.978,144.54 200.873,144.54 Z M127.921,96.54 L127.921,68.54 L198.873,68.54 L198.873,96.54 L127.921,96.54 Z M200.873,100.54 L125.921,100.54 C124.816,100.54 123.921,99.644 123.921,98.54 L123.921,66.54 C123.921,65.435 124.816,64.54 125.921,64.54 L200.873,64.54 C201.978,64.54 202.873,65.435 202.873,66.54 L202.873,98.54 C202.873,99.644 201.978,100.54 200.873,100.54 Z M230.5957,146.728 L220.1157,146.728 C219.0107,146.728 218.1157,145.832 218.1157,144.728 L218.1157,131.13 C218.1157,130.026 219.0107,129.13 220.1157,129.13 C221.2197,129.13 222.1157,130.026 222.1157,131.13 L222.1157,142.728 L230.5957,142.728 C231.6997,142.728 232.5957,143.624 232.5957,144.728 C232.5957,145.832 231.6997,146.728 230.5957,146.728 Z M202.872314,127.0649 L202.872314,123.0649 L214.6143,123.0649 C215.7183,123.0649 216.6143,123.9609 216.6143,125.0649 C216.6143,126.1689 215.7183,127.0649 214.6143,127.0649 L202.872314,127.0649 Z M104.4805,145.6128 L94.0005,145.6128 C92.8955,145.6128 92.0005,144.7168 92.0005,143.6128 C92.0005,142.5088 92.8955,141.6128 94.0005,141.6128 L102.4805,141.6128 L102.4805,130.0158 C102.4805,128.9118 103.3765,128.0158 104.4805,128.0158 C105.5845,128.0158 106.4805,128.9118 106.4805,130.0158 L106.4805,143.6128 C106.4805,144.7168 105.5845,145.6128 104.4805,145.6128 Z M109.9818,125.9507 C108.8768,125.9507 107.9818,125.0547 107.9818,123.9507 C107.9818,122.8467 108.8768,121.9507 109.9818,121.9507 L123.903198,121.9507 L123.903198,125.9507 L109.9818,125.9507 Z M162.3965,57.0972 C161.2925,57.0972 160.3965,56.2012 160.3965,55.0972 L160.3975,41.7362 C160.3975,40.6312 161.2925,39.7362 162.3975,39.7362 C163.5015,39.7362 164.3975,40.6312 164.3975,41.7362 L164.3965,55.0972 C164.3965,56.2012 163.5005,57.0972 162.3965,57.0972 Z M161.5957,157.2661 L161.5967,144.551025 L165.5967,144.551025 L165.5957,157.2661 C165.5957,158.3701 164.6997,159.2661 163.5957,159.2661 C162.4917,159.2661 161.5957,158.3701 161.5957,157.2661 Z M177.1201,27.0142 C176.6081,27.0142 176.0971,26.8192 175.7061,26.4282 C174.9251,25.6472 174.9251,24.3812 175.7061,23.6002 L185.3201,13.9872 C186.1011,13.2052 187.3671,13.2052 188.1481,13.9872 C188.9301,14.7682 188.9301,16.0342 188.1481,16.8152 L178.5341,26.4282 C178.1431,26.8192 177.6321,27.0142 177.1201,27.0142 Z M192.1982,40.5396 L178.6012,40.5396 C177.4972,40.5396 176.6012,39.6436 176.6012,38.5396 C176.6012,37.4356 177.4972,36.5396 178.6012,36.5396 L192.1982,36.5396 C193.3022,36.5396 194.1982,37.4356 194.1982,38.5396 C194.1982,39.6436 193.3022,40.5396 192.1982,40.5396 Z M161.9541,22.5962 C160.8501,22.5962 159.9541,21.7002 159.9541,20.5962 L159.9541,6.9992 C159.9541,5.8952 160.8501,4.9992 161.9541,4.9992 C163.0581,4.9992 163.9541,5.8952 163.9541,6.9992 L163.9541,20.5962 C163.9541,21.7002 163.0581,22.5962 161.9541,22.5962 Z M147.0947,40.5396 L134.5957,40.5396 C133.4907,40.5396 132.5957,39.6436 132.5957,38.5396 C132.5957,37.4356 133.4907,36.5396 134.5957,36.5396 L147.0947,36.5396 C148.1987,36.5396 149.0947,37.4356 149.0947,38.5396 C149.0947,39.6436 148.1987,40.5396 147.0947,40.5396 Z M149.3037,27.0142 C148.7917,27.0142 148.2807,26.8192 147.8897,26.4282 L139.0517,17.5902 C138.2707,16.8092 138.2707,15.5432 139.0517,14.7622 C139.8327,13.9812 141.0987,13.9812 141.8797,14.7622 L150.7177,23.6002 C151.4987,24.3812 151.4987,25.6472 150.7177,26.4282 C150.3267,26.8192 149.8157,27.0142 149.3037,27.0142 Z"/>
  </g>
</svg>
