<svg xmlns="http://www.w3.org/2000/svg" xmlns:xlink="http://www.w3.org/1999/xlink" width="200" height="180" viewBox="0 0 200 180">
  <defs>
    <polygon id="series10-icon-1-a" points="0 .349 29.652 .349 29.652 70.629 0 70.629"/>
    <polygon id="series10-icon-1-c" points=".983 .349 30.634 .349 30.634 76 .983 76"/>
    <polygon id="series10-icon-1-e" points="0 122.971 91.634 122.971 91.634 0 0 0"/>
  </defs>
  <g fill="none" fill-rule="evenodd" transform="translate(54 29)">
    <path fill="#FFF" d="M60.981 35.3089C60.273 35.3089 59.698 34.7349 59.698 34.0269 59.698 33.1099 58.953 32.3639 58.037 32.3639 57.12 32.3639 56.374 33.1099 56.374 34.0269 56.374 34.7349 55.8 35.3089 55.091 35.3089 54.383 35.3089 53.809 34.7349 53.809 34.0269 53.809 31.6959 55.706 29.7989 58.037 29.7989 60.367 29.7989 62.264 31.6959 62.264 34.0269 62.264 34.7349 61.689 35.3089 60.981 35.3089M46.0737 47.4134C43.9997 47.4134 41.9247 46.6244 40.3457 45.0454 39.8447 44.5444 39.8447 43.7314 40.3457 43.2304 40.8467 42.7304 41.6577 42.7304 42.1587 43.2304 44.3197 45.3924 47.8307 45.3914 49.9887 43.2304 50.4897 42.7304 51.3017 42.7304 51.8027 43.2304 52.3027 43.7314 52.3027 44.5444 51.8027 45.0454 50.2227 46.6244 48.1487 47.4134 46.0737 47.4134M36.6084 35.3089C35.9004 35.3089 35.3254 34.7349 35.3254 34.0269 35.3254 33.1099 34.5804 32.3639 33.6634 32.3639 32.7464 32.3639 32.0004 33.1099 32.0004 34.0269 32.0004 34.7349 31.4264 35.3089 30.7174 35.3089 30.0094 35.3089 29.4354 34.7349 29.4354 34.0269 29.4354 31.6959 31.3324 29.7989 33.6634 29.7989 35.9944 29.7989 37.8914 31.6959 37.8914 34.0269 37.8914 34.7349 37.3164 35.3089 36.6084 35.3089M47.1436 38.9749L45.0046 38.9749C44.2956 38.9749 43.7216 38.4009 43.7216 37.6929 43.7216 36.9849 44.2956 36.4109 45.0046 36.4109L47.1436 36.4109C47.8516 36.4109 48.4266 36.9849 48.4266 37.6929 48.4266 38.4009 47.8516 38.9749 47.1436 38.9749"/>
    <path fill="#FFF" d="M45.499,2.5647 C31.574,2.5647 20.246,13.8927 20.246,27.8177 C20.246,41.7417 31.574,53.0697 45.499,53.0697 C47.127,53.0697 48.751,52.9157 50.327,52.6107 C62.162,50.3197 70.751,39.8927 70.751,27.8177 C70.751,13.8927 59.423,2.5647 45.499,2.5647 M45.499,55.6337 C30.16,55.6337 17.681,43.1557 17.681,27.8177 C17.681,12.4787 30.16,0.0007 45.499,0.0007 C60.838,0.0007 73.317,12.4787 73.317,27.8177 C73.317,41.1187 63.853,52.6047 50.814,55.1277 C49.079,55.4637 47.291,55.6337 45.499,55.6337"/>
    <path fill="#FFF" d="M45.6055,25.7562 C37.5355,25.7572 31.1295,23.3162 31.0035,23.2672 L26.7765,21.6102 L31.2465,20.8102 C37.2605,19.7352 39.5465,16.5112 40.4095,14.3792 C33.6215,16.2652 28.2815,15.8982 24.5155,13.2812 C19.6035,9.8672 19.3445,3.9512 19.3355,3.7012 C19.3115,2.9932 19.8655,2.4002 20.5735,2.3762 C21.2505,2.3302 21.8735,2.9042 21.8995,3.6102 C21.9035,3.6982 22.1585,8.5382 26.0025,11.1922 C29.4665,13.5812 34.7815,13.6102 41.8015,11.2722 L43.6045,10.6712 L43.4865,12.5682 C43.4815,12.6432 42.9985,18.9572 35.9865,22.0582 C43.1925,23.7442 58.3605,25.3802 67.6675,12.7102 C68.0875,12.1402 68.8915,12.0192 69.4605,12.4372 C70.0315,12.8562 70.1545,13.6582 69.7345,14.2302 C62.9825,23.4212 53.4985,25.7562 45.6055,25.7562"/>
    <g transform="translate(0 46.971)">
      <mask id="series10-icon-1-b" fill="#fff">
        <use xlink:href="#series10-icon-1-a"/>
      </mask>
      <path fill="#FFF" d="M1.2827,70.6289 C0.5747,70.6289 -0.0003,70.0549 -0.0003,69.3469 L-0.0003,28.7169 C-0.0003,13.0739 12.7267,0.3489 28.3687,0.3489 C29.0777,0.3489 29.6517,0.9229 29.6517,1.6309 C29.6517,2.3389 29.0777,2.9129 28.3687,2.9129 C14.1407,2.9129 2.5657,14.4879 2.5657,28.7169 L2.5657,69.3469 C2.5657,70.0549 1.9907,70.6289 1.2827,70.6289" mask="url(#series10-icon-1-b)"/>
    </g>
    <g transform="translate(61 46.971)">
      <mask id="series10-icon-1-d" fill="#fff">
        <use xlink:href="#series10-icon-1-c"/>
      </mask>
      <path fill="#FFF" d="M29.3516,76 C28.6436,76 28.0686,75.426 28.0686,74.718 L28.0686,28.717 C28.0686,14.488 16.4936,2.913 2.2656,2.913 C1.5566,2.913 0.9826,2.339 0.9826,1.631 C0.9826,0.923 1.5566,0.349 2.2656,0.349 C17.9076,0.349 30.6346,13.074 30.6346,28.717 L30.6346,74.718 C30.6346,75.426 30.0596,76 29.3516,76" mask="url(#series10-icon-1-d)"/>
    </g>
    <path fill="#FFF" d="M39.8677,55.1507 L45.9597,62.8147 L52.0537,55.1507 L39.8677,55.1507 Z M45.9597,66.9357 L34.5517,52.5867 L57.3697,52.5867 L45.9597,66.9357 Z"/>
    <path fill="#FFF" d="M38.626,101.0286 L45.709,108.3456 L53.288,101.0026 L45.96,71.6726 L38.626,101.0286 Z M45.65,111.9726 L35.792,101.7886 L45.96,61.0906 L56.135,101.8146 L45.65,111.9726 Z"/>
    <mask id="series10-icon-1-f" fill="#fff">
      <use xlink:href="#series10-icon-1-e"/>
    </mask>
    <path fill="#FFF" d="M58.365,79.002 L70.879,79.002 L70.879,70.824 L58.365,70.824 L58.365,79.002 Z M55.8,81.567 L73.445,81.567 L73.445,68.26 L55.8,68.26 L55.8,81.567 Z" mask="url(#series10-icon-1-f)"/>
    <path fill="#FFF" d="M71.1396 74.6126L64.6546 74.6126C63.9466 74.6126 63.3716 74.0386 63.3716 73.3306 63.3716 72.6226 63.9466 72.0486 64.6546 72.0486L71.1396 72.0486C71.8476 72.0486 72.4226 72.6226 72.4226 73.3306 72.4226 74.0386 71.8476 74.6126 71.1396 74.6126M71.1396 77.9866L57.5946 77.9866C56.8866 77.9866 56.3116 77.4126 56.3116 76.7046 56.3116 75.9966 56.8866 75.4226 57.5946 75.4226L71.1396 75.4226C71.8476 75.4226 72.4226 75.9966 72.4226 76.7046 72.4226 77.4126 71.8476 77.9866 71.1396 77.9866M16.4854 122.4681C15.7774 122.4681 15.2024 121.8941 15.2024 121.1861L15.2024 89.0831C15.2024 88.3751 15.7774 87.8011 16.4854 87.8011 17.1934 87.8011 17.7684 88.3751 17.7684 89.0831L17.7684 121.1861C17.7684 121.8941 17.1934 122.4681 16.4854 122.4681M75.6738 122.4681C74.9658 122.4681 74.3908 121.8941 74.3908 121.1861L74.3908 89.0831C74.3908 88.3751 74.9658 87.8011 75.6738 87.8011 76.3818 87.8011 76.9568 88.3751 76.9568 89.0831L76.9568 121.1861C76.9568 121.8941 76.3818 122.4681 75.6738 122.4681" mask="url(#series10-icon-1-f)"/>
  </g>
</svg>
