<svg xmlns="http://www.w3.org/2000/svg" xmlns:xlink="http://www.w3.org/1999/xlink" width="200" height="180" viewBox="0 0 200 180">
  <defs>
    <polygon id="series10-icon-5-a" points=".678 .146 60.401 .146 60.401 59.869 .678 59.869"/>
    <polygon id="series10-icon-5-c" points=".663 .126 30.735 .126 30.735 64.236 .663 64.236"/>
  </defs>
  <g fill="none" fill-rule="evenodd" transform="translate(54 28)">
    <path fill="#FFF" d="M63.2046 38.8452C62.4866 38.8452 61.9036 38.2622 61.9036 37.5442 61.9036 36.5132 61.0656 35.6742 60.0346 35.6742 59.0046 35.6742 58.1666 36.5132 58.1666 37.5442 58.1666 38.2622 57.5836 38.8452 56.8656 38.8452 56.1476 38.8452 55.5646 38.2622 55.5646 37.5442 55.5646 35.0782 57.5696 33.0732 60.0346 33.0732 62.4996 33.0732 64.5056 35.0782 64.5056 37.5442 64.5056 38.2622 63.9226 38.8452 63.2046 38.8452M47.1597 51.8735C44.9467 51.8735 42.7347 51.0315 41.0507 49.3485 40.5427 48.8405 40.5427 48.0165 41.0507 47.5085 41.5577 47.0005 42.3827 47.0005 42.8897 47.5085 45.2427 49.8605 49.0737 49.8635 51.4307 47.5085 51.9377 47.0005 52.7617 47.0005 53.2687 47.5085 53.7767 48.0175 53.7767 48.8405 53.2687 49.3485 51.5847 51.0315 49.3717 51.8735 47.1597 51.8735M36.9712 38.8452C36.2532 38.8452 35.6712 38.2622 35.6712 37.5442 35.6712 36.5132 34.8322 35.6742 33.8012 35.6742 32.7702 35.6742 31.9302 36.5132 31.9302 37.5442 31.9302 38.2622 31.3482 38.8452 30.6302 38.8452 29.9122 38.8452 29.3302 38.2622 29.3302 37.5442 29.3302 35.0782 31.3362 33.0732 33.8012 33.0732 36.2662 33.0732 38.2722 35.0782 38.2722 37.5442 38.2722 38.2622 37.6892 38.8452 36.9712 38.8452M48.3101 42.7915L46.0081 42.7915C45.2901 42.7915 44.7071 42.2085 44.7071 41.4905 44.7071 40.7725 45.2901 40.1895 46.0081 40.1895L48.3101 40.1895C49.0281 40.1895 49.6111 40.7725 49.6111 41.4905 49.6111 42.2085 49.0281 42.7915 48.3101 42.7915"/>
    <g transform="translate(16 .854)">
      <mask id="series10-icon-5-b" fill="#fff">
        <use xlink:href="#series10-icon-5-a"/>
      </mask>
      <path fill="#FFF" d="M30.5405,59.8691 C14.0745,59.8691 0.6785,46.4731 0.6785,30.0071 C0.6785,13.5411 14.0745,0.1451 30.5405,0.1451 C31.2585,0.1451 31.8415,0.7281 31.8415,1.4461 C31.8415,2.1641 31.2585,2.7471 30.5405,2.7471 C15.5085,2.7471 3.2795,14.9751 3.2795,30.0071 C3.2795,45.0391 15.5085,57.2671 30.5405,57.2671 C32.2955,57.2671 34.0495,57.1001 35.7505,56.7701 C48.5275,54.2981 57.8005,43.0431 57.8005,30.0071 C57.8005,29.2891 58.3835,28.7061 59.1015,28.7061 C59.8185,28.7061 60.4015,29.2891 60.4015,30.0071 C60.4015,44.2861 50.2425,56.6151 36.2455,59.3231 C34.3815,59.6851 32.4615,59.8691 30.5405,59.8691" mask="url(#series10-icon-5-b)"/>
    </g>
    <path fill="#FFF" d="M81.2603 29.9565C80.6143 29.9565 80.0533 29.4745 79.9723 28.8165 79.9573 28.7095 79.2203 23.5175 74.8203 21.0175 70.8573 18.7645 65.1293 19.2355 57.7993 22.4145L56.0313 23.1815 55.9823 21.2545C55.9793 21.1555 55.9363 18.7945 57.3773 16.0695 58.3273 14.2725 60.0833 12.0435 63.2983 10.3315 55.4913 9.1695 38.7923 8.6945 29.8913 23.3415 29.5183 23.9555 28.7183 24.1495 28.1053 23.7775 27.4913 23.4045 27.2963 22.6045 27.6693 21.9915 40.5303.8245 67.9773 8.6055 68.2543 8.6855L72.6703 9.9845 68.2273 11.1885C61.7443 12.9465 59.6173 16.7735 58.9203 19.1505 66.0633 16.4475 71.8473 16.3185 76.1363 18.7725 81.6913 21.9515 82.5203 28.2315 82.5533 28.4975 82.6403 29.2105 82.1333 29.8585 81.4203 29.9465 81.3663 29.9535 81.3133 29.9565 81.2603 29.9565M32.9478 79.1724C31.2648 79.1724 29.8948 80.5414 29.8948 82.2254L29.8948 104.7774C29.8948 106.4604 31.2648 107.8284 32.9478 107.8284L62.2988 107.8284C63.9808 107.8284 65.3498 106.4604 65.3498 104.7774L65.3498 82.2254C65.3498 80.5414 63.9808 79.1724 62.2988 79.1724L32.9478 79.1724zM62.2988 110.4304L32.9478 110.4304C29.8308 110.4304 27.2948 107.8944 27.2948 104.7774L27.2948 82.2254C27.2948 79.1084 29.8308 76.5704 32.9478 76.5704L62.2988 76.5704C65.4158 76.5704 67.9518 79.1084 67.9518 82.2254L67.9518 104.7774C67.9518 107.8944 65.4158 110.4304 62.2988 110.4304z"/>
    <path fill="#FFF" d="M47.6226 88.2505C45.3496 88.2505 43.4996 90.1005 43.4996 92.3745 43.4996 94.6485 45.3496 96.4985 47.6226 96.4985 49.8966 96.4985 51.7476 94.6485 51.7476 92.3745 51.7476 90.1005 49.8966 88.2505 47.6226 88.2505M47.6226 99.1005C43.9146 99.1005 40.8976 96.0825 40.8976 92.3745 40.8976 88.6665 43.9146 85.6485 47.6226 85.6485 51.3316 85.6485 54.3496 88.6665 54.3496 92.3745 54.3496 96.0825 51.3316 99.1005 47.6226 99.1005M15.7515 123.854C15.0335 123.854 14.4515 123.271 14.4515 122.553L14.4515 89.995C14.4515 89.277 15.0335 88.694 15.7515 88.694 16.4695 88.694 17.0515 89.277 17.0515 89.995L17.0515 122.553C17.0515 123.271 16.4695 123.854 15.7515 123.854"/>
    <path fill="#FFF" d="M1.3003,118.9165 C0.5823,118.9165 0.0003,118.3335 0.0003,117.6155 L0.0003,81.7515 C0.0003,65.8875 12.9063,52.9795 28.7713,52.9795 C29.4893,52.9795 30.0713,53.5625 30.0713,54.2805 C30.0713,54.9985 29.4893,55.5815 28.7713,55.5815 C14.3413,55.5815 2.6003,67.3205 2.6003,81.7515 L2.6003,117.6155 C2.6003,118.3335 2.0183,118.9165 1.3003,118.9165"/>
    <g transform="translate(62 52.854)">
      <mask id="series10-icon-5-d" fill="#fff">
        <use xlink:href="#series10-icon-5-c"/>
      </mask>
      <path fill="#FFF" d="M25.9663,64.2363 C25.3203,64.2363 24.6713,64.1043 24.0583,63.8383 L4.0323,55.1213 C3.3733,54.8353 3.0713,54.0683 3.3593,53.4103 C3.6453,52.7513 4.4093,52.4503 5.0703,52.7363 L25.0963,61.4533 C25.7813,61.7523 26.5293,61.6863 27.1523,61.2793 C27.7763,60.8713 28.1333,60.2093 28.1333,59.4643 L28.1333,28.8973 C28.1333,14.4663 16.3943,2.7273 1.9643,2.7273 C1.2463,2.7273 0.6633,2.1443 0.6633,1.4263 C0.6633,0.7093 1.2463,0.1263 1.9643,0.1263 C17.8283,0.1263 30.7353,13.0333 30.7353,28.8973 L30.7353,59.4643 C30.7353,61.0783 29.9283,62.5703 28.5773,63.4553 C27.7863,63.9723 26.8793,64.2363 25.9663,64.2363" mask="url(#series10-icon-5-d)"/>
    </g>
    <path fill="#FFF" d="M79.5386,99.9448 C79.2066,99.9448 78.8746,99.8638 78.5676,99.7008 L66.4466,93.2188 C65.8126,92.8818 65.5746,92.0928 65.9136,91.4598 C66.2536,90.8258 67.0416,90.5888 67.6736,90.9258 L79.0006,96.9828 L79.0006,89.4858 C79.0006,88.7678 79.5836,88.1848 80.3016,88.1848 C81.0186,88.1848 81.6016,88.7678 81.6016,89.4858 L81.6016,97.8788 C81.6016,98.6098 81.2276,99.2708 80.6006,99.6468 C80.2716,99.8448 79.9056,99.9448 79.5386,99.9448"/>
  </g>
</svg>
