<svg xmlns="http://www.w3.org/2000/svg" xmlns:xlink="http://www.w3.org/1999/xlink" width="200" height="180" viewBox="0 0 200 180">
  <defs>
    <polygon id="series10-icon-4-a" points=".7 .81 31.29 .81 31.29 27.036 .7 27.036"/>
    <polygon id="series10-icon-4-c" points="0 .103 30.676 .103 30.676 83.993 0 83.993"/>
    <polygon id="series10-icon-4-e" points=".312 .104 30.987 .104 30.987 86 .312 86"/>
    <polygon id="series10-icon-4-g" points="0 136.19 93.987 136.19 93.987 1 0 1"/>
  </defs>
  <g fill="none" fill-rule="evenodd" transform="translate(53 22)">
    <path fill="#FFF" d="M47.1694,58.8257 C31.2774,58.8257 18.3484,45.8967 18.3484,30.0057 C18.3484,29.2977 18.9224,28.7227 19.6304,28.7227 C20.3394,28.7227 20.9134,29.2977 20.9134,30.0057 C20.9134,44.4827 32.6914,56.2617 47.1694,56.2617 C48.8604,56.2617 50.5484,56.0997 52.1894,55.7827 C64.4934,53.4007 73.4244,42.5597 73.4244,30.0057 C73.4244,29.2977 73.9984,28.7227 74.7074,28.7227 C75.4154,28.7227 75.9894,29.2977 75.9894,30.0057 C75.9894,43.7867 66.1854,55.6857 52.6764,58.3007 C50.8764,58.6487 49.0234,58.8257 47.1694,58.8257"/>
    <g transform="translate(19 .19)">
      <mask id="series10-icon-4-b" fill="#fff">
        <use xlink:href="#series10-icon-4-a"/>
      </mask>
      <path fill="#FFF" d="M2.6646,27.0361 C2.0796,27.0361 1.5516,26.6331 1.4156,26.0391 C-1.3024,14.1571 4.5796,4.1631 4.8316,3.7431 L6.5916,0.8091 L7.1936,4.1781 C8.3236,10.4941 11.7686,12.8661 13.9866,13.7491 C12.4886,8.3081 12.8596,4.8091 15.1046,3.0841 C19.6246,-0.3919 29.5896,5.9791 30.7116,6.7191 C31.3036,7.1081 31.4676,7.9031 31.0786,8.4941 C30.6896,9.0871 29.8946,9.2511 29.3026,8.8611 C25.6536,6.4641 18.9956,3.3291 16.6666,5.1181 C15.8016,5.7841 14.7056,7.9711 17.0926,15.1391 L17.6936,16.9411 L15.7966,16.8241 C15.7006,16.8181 13.4216,16.6601 10.9206,15.0411 C9.1476,13.8931 6.9716,11.8081 5.5996,8.1021 C4.1316,11.7621 2.2796,18.3121 3.9156,25.4671 C4.0736,26.1571 3.6426,26.8461 2.9516,27.0031 C2.8556,27.0251 2.7596,27.0361 2.6646,27.0361" mask="url(#series10-icon-4-b)"/>
    </g>
    <path fill="#FFF" d="M72.4526,27.2261 C72.3316,27.2261 72.2086,27.2081 72.0866,27.1721 C71.4076,26.9701 71.0206,26.2561 71.2226,25.5781 C73.8126,16.8671 72.0116,10.8621 70.4996,7.8001 C69.1426,11.8161 66.8536,14.0351 65.0036,15.2311 C62.5016,16.8501 60.2236,17.0081 60.1266,17.0141 L58.2306,17.1311 L58.8306,15.3291 C60.9826,8.8721 60.0616,7.9141 60.0526,7.9051 C58.7096,7.2861 52.2266,12.5741 46.4466,18.9901 C45.9726,19.5161 45.1606,19.5581 44.6356,19.0841 C44.1086,18.6101 44.0666,17.7991 44.5406,17.2731 C48.3366,13.0581 57.5766,3.4931 61.3496,5.6931 C63.0916,6.7061 63.2916,9.2201 61.9456,13.9491 C64.1646,13.0751 67.5956,10.7131 68.7316,4.3681 L69.1976,1.7641 L70.9526,3.7421 C71.2416,4.0671 77.9736,11.8721 73.6816,26.3081 C73.5156,26.8661 73.0056,27.2261 72.4526,27.2261"/>
    <g transform="translate(0 50.19)">
      <mask id="series10-icon-4-d" fill="#fff">
        <use xlink:href="#series10-icon-4-c"/>
      </mask>
      <path fill="#FFF" d="M1.2827,83.9932 C0.5747,83.9932 -0.0003,83.4192 -0.0003,82.7112 L-0.0003,29.4942 C-0.0003,13.2882 13.1857,0.1032 29.3927,0.1032 C30.1007,0.1032 30.6757,0.6782 30.6757,1.3862 C30.6757,2.0942 30.1007,2.6682 29.3927,2.6682 C14.5997,2.6682 2.5657,14.7022 2.5657,29.4942 L2.5657,82.7112 C2.5657,83.4192 1.9907,83.9932 1.2827,83.9932" mask="url(#series10-icon-4-d)"/>
    </g>
    <g transform="translate(63 50.19)">
      <mask id="series10-icon-4-f" fill="#fff">
        <use xlink:href="#series10-icon-4-e"/>
      </mask>
      <path fill="#FFF" d="M29.7041,86 C28.9961,86 28.4211,85.426 28.4211,84.718 L28.4211,29.494 C28.4211,14.702 16.3871,2.668 1.5951,2.668 C0.8861,2.668 0.3121,2.094 0.3121,1.386 C0.3121,0.678 0.8861,0.104 1.5951,0.104 C17.8011,0.104 30.9871,13.288 30.9871,29.494 L30.9871,84.718 C30.9871,85.426 30.4121,86 29.7041,86" mask="url(#series10-icon-4-f)"/>
    </g>
    <path fill="#FFF" d="M40.0186 58.3228L46.6406 111.4968 55.2236 58.3228 40.0186 58.3228zM46.3126 129.6218L37.1146 55.7588 58.2356 55.7588 46.3126 129.6218zM42.1396 48.8824C41.6796 48.8824 41.2336 48.6334 41.0046 48.1974 40.6736 47.5704 40.9136 46.7954 41.5406 46.4644L46.3836 43.9104 49.8896 45.9024 55.1206 43.0734C55.7436 42.7344 56.5216 42.9684 56.8596 43.5914 57.1956 44.2144 56.9636 44.9924 56.3406 45.3294L49.8596 48.8334 46.3376 46.8344 42.7366 48.7344C42.5456 48.8344 42.3416 48.8824 42.1396 48.8824M28.9097 124.9634C28.8517 124.9634 28.7937 124.9594 28.7347 124.9514 28.0327 124.8564 27.5417 124.2094 27.6377 123.5074L33.4007 81.3564 17.7317 67.2934 31.0727 52.2854C31.5437 51.7554 32.3547 51.7084 32.8837 52.1784 33.4127 52.6494 33.4607 53.4594 32.9897 53.9884L21.3447 67.0904 36.1267 80.3564 30.1787 123.8554C30.0907 124.4974 29.5407 124.9634 28.9097 124.9634M66.1548 124.9634C65.5238 124.9644 64.9738 124.4974 64.8858 123.8554L58.9378 80.3564 73.7198 67.0904 62.0748 53.9884C61.6038 53.4594 61.6518 52.6494 62.1808 52.1784 62.7108 51.7084 63.5218 51.7554 63.9918 52.2854L77.3328 67.2934 61.6638 81.3564 67.4268 123.5074C67.5228 124.2094 67.0318 124.8564 66.3298 124.9514 66.2708 124.9594 66.2128 124.9634 66.1548 124.9634M36.9565 33.2584C36.6285 33.2584 36.3005 33.1334 36.0495 32.8834 35.5485 32.3824 35.5485 31.5704 36.0495 31.0694L42.0685 25.0494C42.5695 24.5494 43.3815 24.5494 43.8825 25.0494 44.3835 25.5504 44.3835 26.3624 43.8825 26.8634L37.8635 32.8834C37.6125 33.1334 37.2845 33.2584 36.9565 33.2584M45.0796 30.4019C44.7516 30.4019 44.4236 30.2769 44.1726 30.0269 43.6716 29.5259 43.6716 28.7139 44.1726 28.2129L47.3356 25.0489C47.8366 24.5489 48.6486 24.5489 49.1496 25.0489 49.6506 25.5499 49.6506 26.3629 49.1496 26.8639L45.9866 30.0269C45.7356 30.2769 45.4076 30.4019 45.0796 30.4019"/>
    <mask id="series10-icon-4-h" fill="#fff">
      <use xlink:href="#series10-icon-4-g"/>
    </mask>
    <path fill="#FFF" d="M20.69 29.927L24.339 29.927 24.339 27.754 20.69 27.754 20.69 29.927zM18.125 32.492L26.905 32.492 26.905 25.19 18.125 25.19 18.125 32.492zM70.244 29.927L73.893 29.927 73.893 27.754 70.244 27.754 70.244 29.927zM67.678 32.492L76.458 32.492 76.458 25.19 67.678 25.19 67.678 32.492z" mask="url(#series10-icon-4-h)"/>
    <path fill="#FFF" d="M52.873 36.5455L61.459 36.5455C64.839 36.5455 67.589 33.7955 67.589 30.4155L67.589 29.4635C67.589 26.0835 64.839 23.3335 61.459 23.3335L33.259 23.3335C29.879 23.3335 27.129 26.0835 27.129 29.4635L27.129 30.4155C27.129 33.7955 29.879 36.5455 33.259 36.5455L41.72 36.5455C41.952 33.6705 44.364 31.4035 47.296 31.4035 50.228 31.4035 52.641 33.6705 52.873 36.5455M61.459 39.3325L51.498 39.3325C50.727 39.3325 50.103 38.7085 50.103 37.9395L50.103 36.9995C50.103 35.4505 48.844 34.1915 47.296 34.1915 45.748 34.1915 44.489 35.4505 44.489 36.9995L44.489 37.9395C44.489 38.7085 43.865 39.3325 43.095 39.3325L33.259 39.3325C28.342 39.3325 24.341 35.3325 24.341 30.4155L24.341 29.4635C24.341 24.5465 28.342 20.5465 33.259 20.5465L61.459 20.5465C66.376 20.5465 70.377 24.5465 70.377 29.4635L70.377 30.4155C70.377 35.3325 66.376 39.3325 61.459 39.3325M15.145 134.1832C14.437 134.1832 13.862 133.6092 13.862 132.9012L13.862 81.2372C13.862 80.5292 14.437 79.9542 15.145 79.9542 15.853 79.9542 16.428 80.5292 16.428 81.2372L16.428 132.9012C16.428 133.6092 15.853 134.1832 15.145 134.1832M77.8022 134.1832C77.0942 134.1832 76.5192 133.6092 76.5192 132.9012L76.5192 81.2372C76.5192 80.5292 77.0942 79.9542 77.8022 79.9542 78.5102 79.9542 79.0852 80.5292 79.0852 81.2372L79.0852 132.9012C79.0852 133.6092 78.5102 134.1832 77.8022 134.1832" mask="url(#series10-icon-4-h)"/>
  </g>
</svg>
