<svg xmlns="http://www.w3.org/2000/svg" xmlns:xlink="http://www.w3.org/1999/xlink" width="200" height="180" viewBox="0 0 200 180">
  <defs>
    <polygon id="series10-icon-6-a" points=".461 .014 33.583 .014 33.583 71 .461 71"/>
    <polygon id="series10-icon-6-c" points="0 .014 33.12 .014 33.12 70.999 0 70.999"/>
  </defs>
  <g fill="none" fill-rule="evenodd" transform="translate(50 30)">
    <g transform="translate(66 48.414)">
      <mask id="series10-icon-6-b" fill="#fff">
        <use xlink:href="#series10-icon-6-a"/>
      </mask>
      <path fill="#FFF" d="M28.4414,71 C27.7464,71 27.0464,70.858 26.3864,70.57 L26.1334,70.424 L2.0874,52.56 C1.5194,52.138 1.4004,51.334 1.8234,50.766 C2.2444,50.197 3.0494,50.078 3.6174,50.501 L27.5344,68.269 C28.3114,68.563 29.1504,68.473 29.8524,68.011 C30.5934,67.525 31.0184,66.739 31.0184,65.854 L31.0184,31.853 C31.0184,15.711 17.8854,2.578 1.7434,2.578 C1.0354,2.578 0.4614,2.004 0.4614,1.296 C0.4614,0.588 1.0354,0.014 1.7434,0.014 C19.2994,0.014 33.5834,14.296 33.5834,31.853 L33.5834,65.854 C33.5834,67.594 32.7134,69.202 31.2574,70.156 C30.4054,70.716 29.4264,71 28.4414,71" mask="url(#series10-icon-6-b)"/>
    </g>
    <path fill="#FFF" d="M84.7744,101.7978 L68.9744,86.8298 C68.4604,86.3438 68.4384,85.5308 68.9254,85.0178 C69.4124,84.5028 70.2234,84.4808 70.7384,84.9688 L84.6214,98.1188 C84.6264,98.1128 84.6294,98.1078 84.6344,98.1018 L84.6344,76.7728 C84.6344,76.0648 85.2094,75.4898 85.9174,75.4898 C86.6254,75.4898 87.1994,76.0648 87.1994,76.7728 L87.1994,98.2058 C87.1994,99.1928 86.5524,99.8338 86.0814,100.3018 C85.9404,100.4418 85.7904,100.5888 85.6494,100.7558 L84.7744,101.7978 Z"/>
    <g transform="translate(0 48.414)">
      <mask id="series10-icon-6-d" fill="#fff">
        <use xlink:href="#series10-icon-6-c"/>
      </mask>
      <path fill="#FFF" d="M5.1396,70.999 C4.1556,70.999 3.1766,70.715 2.3246,70.156 C0.8686,69.202 -0.0004,67.594 -0.0004,65.854 L-0.0004,31.853 C-0.0004,14.296 14.2826,0.014 31.8376,0.014 C32.5456,0.014 33.1196,0.588 33.1196,1.296 C33.1196,2.004 32.5456,2.578 31.8376,2.578 C15.6966,2.578 2.5646,15.711 2.5646,31.853 L2.5646,65.854 C2.5646,66.739 2.9896,67.525 3.7296,68.011 C4.4386,68.475 5.2836,68.562 6.0666,68.261 L30.4196,51.381 C31.0016,50.978 31.7996,51.122 32.2036,51.704 C32.6086,52.286 32.4626,53.085 31.8806,53.488 L7.1956,70.569 C6.5356,70.857 5.8356,70.999 5.1396,70.999" mask="url(#series10-icon-6-d)"/>
    </g>
    <path fill="#FFF" d="M15.5566 101.79L14.6866 100.757C14.5456 100.59 14.3956 100.442 14.2546 100.304 13.7826 99.835 13.1356 99.193 13.1356 98.206L13.1356 76.772C13.1356 76.064 13.7096 75.49 14.4176 75.49 15.1256 75.49 15.7006 76.064 15.7006 76.772L15.7006 98.102C15.7056 98.109 15.7126 98.117 15.7196 98.126L26.8526 87.713C27.3696 87.229 28.1826 87.255 28.6646 87.773 29.1496 88.291 29.1216 89.102 28.6046 89.586L15.5566 101.79zM49.7881 49.6122C47.6061 49.6122 45.4241 48.7822 43.7631 47.1212 43.2621 46.6202 43.2621 45.8072 43.7631 45.3062 44.2651 44.8062 45.0751 44.8062 45.5771 45.3062 46.7021 46.4312 48.1971 47.0512 49.7891 47.0512 51.3801 47.0512 52.8751 46.4312 54.0001 45.3062 54.5021 44.8062 55.3121 44.8062 55.8141 45.3062 56.3141 45.8072 56.3141 46.6202 55.8141 47.1212 54.1531 48.7822 51.9711 49.6122 49.7881 49.6122M50.9229 40.6533L48.6529 40.6533C47.9449 40.6533 47.3709 40.0793 47.3709 39.3713 47.3709 38.6633 47.9449 38.0893 48.6529 38.0893L50.9229 38.0893C51.6309 38.0893 52.2049 38.6633 52.2049 39.3713 52.2049 40.0793 51.6309 40.6533 50.9229 40.6533"/>
    <path fill="#FFF" d="M49.333 58.4228C35.267 58.4228 23.822 46.9788 23.822 32.9118 23.822 32.2038 24.396 31.6298 25.104 31.6298 25.812 31.6298 26.387 32.2038 26.387 32.9118 26.387 45.5648 36.681 55.8588 49.333 55.8588 50.806 55.8588 52.282 55.7178 53.72 55.4408 64.474 53.3588 72.279 43.8848 72.279 32.9118 72.279 32.2038 72.854 31.6298 73.562 31.6298 74.27 31.6298 74.844 32.2038 74.844 32.9118 74.844 45.1098 66.165 55.6448 54.207 57.9578 52.608 58.2668 50.969 58.4228 49.333 58.4228M28.5928 18.9755C23.8458 18.9755 20.2828 17.9495 20.1188 17.9005 19.4398 17.7015 19.0508 16.9905 19.2488 16.3105 19.4468 15.6315 20.1658 15.2465 20.8388 15.4385 20.9998 15.4875 37.0478 19.9995 45.1938 8.9115 45.6118 8.3385 46.4148 8.2165 46.9858 8.6365 47.5568 9.0555 47.6798 9.8585 47.2598 10.4285 43.4288 15.6455 37.5008 18.5875 30.1168 18.9395 29.5978 18.9635 29.0888 18.9755 28.5928 18.9755M28.5938 10.5878C23.8458 10.5878 20.2828 9.5618 20.1188 9.5128 19.4398 9.3138 19.0508 8.6028 19.2488 7.9228 19.4478 7.2428 20.1658 6.8578 20.8388 7.0508 20.9988 7.0978 37.0478 11.6108 45.1938.5248 45.6118-.0482 46.4148-.1692 46.9858.2498 47.5568.6688 47.6798 1.4718 47.2598 2.0418 43.4288 7.2578 37.5008 10.1998 30.1168 10.5518 29.5988 10.5758 29.0888 10.5878 28.5938 10.5878M67.6396 18.9755C67.1436 18.9755 66.6346 18.9635 66.1156 18.9395 58.7316 18.5875 52.8026 15.6455 48.9716 10.4285 48.5516 9.8585 48.6746 9.0555 49.2456 8.6365 49.8156 8.2155 50.6186 8.3385 51.0376 8.9115 59.2016 20.0255 75.2296 15.4875 75.3926 15.4395 76.0686 15.2415 76.7846 15.6285 76.9836 16.3095 77.1826 16.9895 76.7926 17.7015 76.1136 17.9005 75.9496 17.9495 72.3866 18.9755 67.6396 18.9755M67.6387 10.5878C67.1427 10.5878 66.6347 10.5758 66.1157 10.5518 58.7317 10.1998 52.8027 7.2578 48.9717 2.0428 48.5517 1.4718 48.6747.6688 49.2447.2498 49.8177-.1702 50.6187-.0482 51.0377.5238 59.1837 11.6108 75.2337 7.0988 75.3937 7.0508 76.0677 6.8588 76.7847 7.2418 76.9837 7.9228 77.1817 8.6028 76.7927 9.3138 76.1137 9.5128 75.9497 9.5618 72.3857 10.5878 67.6387 10.5878M54.1143 29.8447L45.4093 29.8447C44.7013 29.8447 44.1273 29.2707 44.1273 28.5627 44.1273 27.8547 44.7013 27.2807 45.4093 27.2807L54.1143 27.2807C54.8223 27.2807 55.3963 27.8547 55.3963 28.5627 55.3963 29.2707 54.8223 29.8447 54.1143 29.8447"/>
    <path fill="#FFF" d="M37.3594 23.3906C34.5434 23.3906 32.2514 25.6816 32.2514 28.4976 32.2514 31.3146 34.5434 33.6066 37.3594 33.6066 40.1754 33.6066 42.4664 31.3146 42.4664 28.4976 42.4664 25.6816 40.1754 23.3906 37.3594 23.3906M37.3594 36.1706C33.1284 36.1706 29.6864 32.7296 29.6864 28.4976 29.6864 24.2676 33.1284 20.8266 37.3594 20.8266 41.5894 20.8266 45.0314 24.2676 45.0314 28.4976 45.0314 32.7296 41.5894 36.1706 37.3594 36.1706M60.79 23.3906C57.974 23.3906 55.682 25.6816 55.682 28.4976 55.682 31.3146 57.974 33.6066 60.79 33.6066 63.606 33.6066 65.898 31.3146 65.898 28.4976 65.898 25.6816 63.606 23.3906 60.79 23.3906M60.79 36.1706C56.559 36.1706 53.117 32.7296 53.117 28.4976 53.117 24.2676 56.559 20.8266 60.79 20.8266 65.021 20.8266 68.463 24.2676 68.463 28.4976 68.463 32.7296 65.021 36.1706 60.79 36.1706M31.1455 72.7499C30.8065 72.7499 30.4705 72.8439 30.1605 73.0309 29.5735 73.3859 29.2355 73.9829 29.2355 74.6699L29.2355 96.7359C29.2355 97.4479 29.6275 98.0969 30.2575 98.4289L44.1035 105.7159C44.7095 106.0339 45.3935 106.0149 45.9825 105.6609 46.5695 105.3069 46.9065 104.7099 46.9065 104.0229L46.9065 81.9559C46.9065 81.2429 46.5145 80.5949 45.8855 80.2639L32.0395 72.9769C31.7525 72.8249 31.4485 72.7499 31.1455 72.7499M44.9965 108.5059C44.2835 108.5059 43.5695 108.3329 42.9085 107.9849L29.0635 100.6979C27.5875 99.9219 26.6705 98.4029 26.6705 96.7359L26.6705 74.6699C26.6705 73.0869 27.4795 71.6519 28.8345 70.8349 30.1915 70.0169 31.8355 69.9699 33.2345 70.7069L47.0805 77.9939C48.5545 78.7699 49.4705 80.2869 49.4705 81.9559L49.4705 104.0229C49.4705 105.6059 48.6625 107.0389 47.3075 107.8559 46.5915 108.2889 45.7945 108.5059 44.9965 108.5059"/>
    <path fill="#FFF" d="M66.2666 72.7499C65.9636 72.7499 65.6616 72.8249 65.3746 72.9759L51.5296 80.2629C50.8986 80.5949 50.5056 81.2439 50.5056 81.9559L50.5056 104.0229C50.5056 104.7089 50.8426 105.3059 51.4306 105.6599 52.0166 106.0159 52.7036 106.0339 53.3106 105.7159L67.1556 98.4289C67.7866 98.0969 68.1776 97.4479 68.1776 96.7359L68.1776 74.6699C68.1776 73.9829 67.8406 73.3869 67.2526 73.0309 66.9426 72.8449 66.6056 72.7499 66.2666 72.7499M52.4166 108.5059C51.6186 108.5059 50.8216 108.2889 50.1046 107.8559 48.7496 107.0379 47.9416 105.6049 47.9416 104.0229L47.9416 81.9559C47.9416 80.2889 48.8586 78.7709 50.3336 77.9929L64.1796 70.7059C65.5796 69.9679 67.2236 70.0169 68.5786 70.8359 69.9336 71.6539 70.7426 73.0869 70.7426 74.6699L70.7426 96.7359C70.7426 98.4019 69.8266 99.9209 68.3506 100.6979L54.5056 107.9849C53.8446 108.3329 53.1306 108.5059 52.4166 108.5059M46.4805 76.2714C46.2795 76.2714 46.0745 76.2234 45.8835 76.1234L32.0395 68.8344C31.4125 68.5044 31.1715 67.7294 31.5015 67.1024 31.8315 66.4764 32.6065 66.2344 33.2345 66.5654L47.0795 73.8534C47.7065 74.1834 47.9465 74.9594 47.6165 75.5854 47.3865 76.0214 46.9415 76.2714 46.4805 76.2714M50.9316 76.2714C50.4706 76.2714 50.0256 76.0214 49.7956 75.5854 49.4656 74.9594 49.7066 74.1834 50.3326 73.8534L64.1786 66.5664C64.8056 66.2354 65.5806 66.4784 65.9106 67.1034 66.2416 67.7304 65.9996 68.5054 65.3736 68.8354L51.5286 76.1234C51.3376 76.2234 51.1326 76.2714 50.9316 76.2714"/>
  </g>
</svg>
