<svg xmlns="http://www.w3.org/2000/svg" width="325" height="180" viewBox="0 0 325 180">
  <path fill="#FFF" fill-rule="evenodd" d="M207.3979,150.232 C206.8769,150.232 206.3659,150.029 205.9829,149.646 L191.0309,134.699 L182.5189,134.699 C173.5099,134.699 164.8289,128.878 159.8639,119.51 C159.3469,118.535 159.7189,117.324 160.6949,116.806 C161.6709,116.288 162.8809,116.662 163.3979,117.637 C167.6039,125.572 175.1079,130.699 182.5189,130.699 L191.8589,130.699 C192.3899,130.699 192.8979,130.91 193.2729,131.285 L205.3979,143.405 L205.3979,131.343 C205.3979,130.268 206.2479,129.385 207.3219,129.344 C218.8089,128.913 228.8849,117.287 228.8849,104.464 C228.8849,90.688 219.2059,79.897 206.8479,79.897 C205.7439,79.897 204.8479,79.002 204.8479,77.897 C204.8479,76.793 205.7439,75.897 206.8479,75.897 C221.4479,75.897 232.8849,88.445 232.8849,104.464 C232.8849,118.889 222.3149,131.579 209.3979,133.186 L209.3979,148.232 C209.3979,149.041 208.9099,149.77 208.1629,150.08 C207.9159,150.182 207.6559,150.232 207.3979,150.232 Z M169.3486,58.9146 L121.8956,58.9146 C120.7906,58.9146 119.8956,58.0186 119.8956,56.9146 C119.8956,55.8106 120.7906,54.9146 121.8956,54.9146 L169.3486,54.9146 C170.4526,54.9146 171.3486,55.8106 171.3486,56.9146 C171.3486,58.0186 170.4526,58.9146 169.3486,58.9146 Z M169.3486,73.1509 L121.8956,73.1509 C120.7906,73.1509 119.8956,72.2549 119.8956,71.1509 C119.8956,70.0469 120.7906,69.1509 121.8956,69.1509 L169.3486,69.1509 C170.4526,69.1509 171.3486,70.0469 171.3486,71.1509 C171.3486,72.2549 170.4526,73.1509 169.3486,73.1509 Z M145.6855,87.3863 L121.8955,87.3863 C120.7905,87.3863 119.8955,86.4903 119.8955,85.3863 C119.8955,84.2823 120.7905,83.3863 121.8955,83.3863 L145.6855,83.3863 C146.7895,83.3863 147.6855,84.2823 147.6855,85.3863 C147.6855,86.4903 146.7895,87.3863 145.6855,87.3863 Z M127.1797,34.9996 C109.6957,34.9996 95.9997,50.7056 95.9997,70.7556 C95.9997,89.6396 106.0717,103.1226 122.2847,105.9426 C123.2427,106.1096 123.9417,106.9406 123.9417,107.9136 L123.9417,130.5906 L149.4187,107.7026 C149.7847,107.3726 150.2617,107.1896 150.7547,107.1896 L161.5957,107.1896 C179.2437,107.1896 193.6007,91.0226 193.6007,71.1506 C193.6007,51.2176 179.2437,34.9996 161.5957,34.9996 L127.1797,34.9996 Z M121.9417,137.0756 C121.6657,137.0756 121.3887,137.0196 121.1277,136.9016 C120.4067,136.5806 119.9417,135.8646 119.9417,135.0756 L119.9417,109.5576 C102.9077,105.7966 91.9997,90.7556 91.9997,70.7556 C91.9997,48.4626 107.4527,30.9996 127.1797,30.9996 L161.5957,30.9996 C181.4497,30.9996 197.6007,49.0116 197.6007,71.1506 C197.6007,93.2286 181.4497,111.1896 161.5957,111.1896 L151.5217,111.1896 L123.2787,136.5626 C122.9047,136.8996 122.4257,137.0756 121.9417,137.0756 Z"/>
</svg>
