<svg xmlns="http://www.w3.org/2000/svg" xmlns:xlink="http://www.w3.org/1999/xlink" width="200" height="180" viewBox="0 0 200 180">
  <defs>
    <polygon id="series10-icon-2-a" points=".848 .725 42.162 .725 42.162 15.312 .848 15.312"/>
    <polygon id="series10-icon-2-c" points="0 .118 29.652 .118 29.652 65.132 0 65.132"/>
  </defs>
  <g fill="none" fill-rule="evenodd" transform="translate(54 29)">
    <path fill="#FFF" d="M17.4829 121.275C16.7749 121.275 16.1999 120.701 16.1999 119.993L16.1999 87.891C16.1999 87.183 16.7749 86.609 17.4829 86.609 18.1909 86.609 18.7659 87.183 18.7659 87.891L18.7659 119.993C18.7659 120.701 18.1909 121.275 17.4829 121.275M46.0737 51.4918C43.9097 51.4918 41.8757 50.6488 40.3447 49.1178 39.8447 48.6168 39.8447 47.8048 40.3457 47.3048 40.8457 46.8048 41.6577 46.8038 42.1597 47.3048 43.2047 48.3498 44.5947 48.9268 46.0737 48.9268 47.5527 48.9268 48.9427 48.3498 49.9877 47.3048 50.4897 46.8038 51.3017 46.8048 51.8017 47.3048 52.3027 47.8048 52.3027 48.6168 51.8027 49.1178 50.2717 50.6488 48.2377 51.4918 46.0737 51.4918M47.1431 43.0484L45.0041 43.0484C44.2961 43.0484 43.7221 42.4744 43.7221 41.7664 43.7221 41.0584 44.2961 40.4844 45.0041 40.4844L47.1431 40.4844C47.8511 40.4844 48.4251 41.0584 48.4251 41.7664 48.4251 42.4744 47.8511 43.0484 47.1431 43.0484"/>
    <path fill="#FFF" d="M45.4995,59.7086 C30.1605,59.7086 17.6805,47.2296 17.6805,31.8916 C17.6805,31.1836 18.2545,30.6086 18.9625,30.6086 C19.6715,30.6086 20.2455,31.1836 20.2455,31.8916 C20.2455,45.8156 31.5745,57.1446 45.4995,57.1446 C47.1235,57.1446 48.7475,56.9886 50.3265,56.6846 C62.1615,54.3936 70.7515,43.9666 70.7515,31.8916 C70.7515,31.1836 71.3255,30.6086 72.0335,30.6086 C72.7415,30.6086 73.3155,31.1836 73.3155,31.8916 C73.3155,45.1916 63.8525,56.6786 50.8135,59.2016 C49.0735,59.5386 47.2865,59.7086 45.4995,59.7086"/>
    <g transform="translate(19 .275)">
      <mask id="series10-icon-2-b" fill="#fff">
        <use xlink:href="#series10-icon-2-a"/>
      </mask>
      <path fill="#FFF" d="M2.1299,15.3115 C1.8659,15.3115 1.5999,15.2305 1.3719,15.0625 C0.8009,14.6435 0.6779,13.8405 1.0969,13.2695 C14.7039,-5.2505 40.9779,2.1865 41.2399,2.2645 C41.9199,2.4635 42.3089,3.1745 42.1099,3.8545 C41.9129,4.5355 41.1939,4.9195 40.5199,4.7265 C40.2719,4.6515 15.6989,-2.2755 3.1649,14.7895 C2.9129,15.1305 2.5239,15.3115 2.1299,15.3115" mask="url(#series10-icon-2-b)"/>
    </g>
    <g transform="translate(0 51.275)">
      <mask id="series10-icon-2-d" fill="#fff">
        <use xlink:href="#series10-icon-2-c"/>
      </mask>
      <path fill="#FFF" d="M1.2827,65.1318 C0.5747,65.1318 -0.0003,64.5578 -0.0003,63.8498 L-0.0003,28.4858 C-0.0003,12.8438 12.7267,0.1178 28.3687,0.1178 C29.0777,0.1178 29.6517,0.6928 29.6517,1.4008 C29.6517,2.1088 29.0777,2.6828 28.3687,2.6828 C14.1407,2.6828 2.5657,14.2578 2.5657,28.4858 L2.5657,63.8498 C2.5657,64.5578 1.9907,65.1318 1.2827,65.1318" mask="url(#series10-icon-2-d)"/>
    </g>
    <path fill="#FFF" d="M87.9009 114.8619C87.3189 114.8619 86.7359 114.7159 86.2009 114.4229L59.0019 99.5489C58.3799 99.2099 58.1519 98.4299 58.4919 97.8089 58.8319 97.1879 59.6119 96.9599 60.2319 97.2999L87.4319 112.1729C87.8709 112.4119 88.2529 112.2419 88.3959 112.1569 88.5399 112.0709 88.8739 111.8189 88.8739 111.3179L88.8739 79.7619C88.8739 65.5339 77.2979 53.9579 63.0709 53.9579 62.3629 53.9579 61.7889 53.3829 61.7889 52.6749 61.7889 51.9669 62.3629 51.3929 63.0709 51.3929 78.7129 51.3929 91.4379 64.1199 91.4379 79.7619L91.4379 111.3179C91.4379 112.5809 90.7899 113.7189 89.7039 114.3629 89.1419 114.6949 88.5219 114.8619 87.9009 114.8619M39.8667 59.2242L45.9607 66.8892 52.0537 59.2242 39.8667 59.2242zM45.9607 71.0102L34.5507 56.6602 57.3697 56.6602 45.9607 71.0102zM23.2505 32.5455L18.1355 32.5455C17.4265 32.5455 16.8525 31.9715 16.8525 31.2635 16.8525 30.5555 17.4265 29.9815 18.1355 29.9815L23.2505 29.9815C23.9585 29.9815 24.5335 30.5555 24.5335 31.2635 24.5335 31.9715 23.9585 32.5455 23.2505 32.5455M72.8091 32.5455L67.3911 32.5455C66.6831 32.5455 66.1091 31.9715 66.1091 31.2635 66.1091 30.5555 66.6831 29.9815 67.3911 29.9815L72.8091 29.9815C73.5171 29.9815 74.0911 30.5555 74.0911 31.2635 74.0911 31.9715 73.5171 32.5455 72.8091 32.5455"/>
    <path fill="#FFF" d="M74.3433 31.0143C73.7783 31.0143 73.2593 30.6363 73.1063 30.0643 72.9373 29.4483 68.7673 15.0593 48.0563 18.5773 47.3513 18.6903 46.6963 18.2253 46.5763 17.5273 46.4583 16.8283 46.9283 16.1663 47.6263 16.0483 70.7113 12.1333 75.5373 29.2283 75.5833 29.4013 75.7663 30.0853 75.3593 30.7873 74.6743 30.9703 74.5643 30.9993 74.4523 31.0143 74.3433 31.0143M14.2251 32.5309C14.0691 32.5309 13.9101 32.5019 13.7551 32.4409 13.0961 32.1809 12.7721 31.4359 13.0321 30.7769 16.5721 21.7979 22.3651 17.8539 26.6021 16.1279 31.2211 14.2459 34.9931 14.5179 35.1511 14.5299 35.8571 14.5859 36.3841 15.2029 36.3291 15.9089 36.2721 16.6139 35.6561 17.1499 34.9521 17.0869 34.4091 17.0489 21.5041 16.2799 15.4191 31.7189 15.2201 32.2219 14.7371 32.5309 14.2251 32.5309"/>
    <path fill="#FFF" d="M76.978 23.8668C76.446 23.8668 75.948 23.5318 75.765 23.0008 75.487 22.2008 68.724 3.8988 38.733 11.0378 38.047 11.2028 37.353 10.7768 37.188 10.0868 37.024 9.3978 37.45 8.7058 38.139 8.5418 70.499.8388 78.119 21.9558 78.192 22.1688 78.42 22.8398 78.063 23.5678 77.393 23.7978 77.255 23.8448 77.116 23.8668 76.978 23.8668M34.5366 37.7604C32.1436 37.7604 30.1976 35.8144 30.1976 33.4214 30.1976 32.7134 30.7716 32.1394 31.4806 32.1394 32.1886 32.1394 32.7636 32.7134 32.7636 33.4214 32.7636 34.4004 33.5586 35.1964 34.5366 35.1964 35.5146 35.1964 36.3106 34.4004 36.3106 33.4214 36.3106 32.7134 36.8856 32.1394 37.5936 32.1394 38.3016 32.1394 38.8756 32.7134 38.8756 33.4214 38.8756 35.8144 36.9296 37.7604 34.5366 37.7604M58.7427 37.7604C56.3497 37.7604 54.4037 35.8144 54.4037 33.4214 54.4037 32.7134 54.9777 32.1394 55.6857 32.1394 56.3937 32.1394 56.9687 32.7134 56.9687 33.4214 56.9687 34.4004 57.7637 35.1964 58.7427 35.1964 59.7207 35.1964 60.5157 34.4004 60.5157 33.4214 60.5157 32.7134 61.0907 32.1394 61.7987 32.1394 62.5067 32.1394 63.0807 32.7134 63.0807 33.4214 63.0807 35.8144 61.1347 37.7604 58.7427 37.7604M43.4175 79.7906C40.0935 79.7906 37.3895 82.4946 37.3895 85.8176L37.3895 103.7076C37.3895 107.0316 40.0935 109.7366 43.4175 109.7366L52.2035 109.7366C55.5285 109.7366 58.2335 107.0316 58.2335 103.7076L58.2335 85.8176C58.2335 82.4946 55.5285 79.7906 52.2035 79.7906L43.4175 79.7906zM52.2035 112.3016L43.4175 112.3016C38.6795 112.3016 34.8245 108.4456 34.8245 103.7076L34.8245 85.8176C34.8245 81.0806 38.6795 77.2266 43.4175 77.2266L52.2035 77.2266C56.9425 77.2266 60.7985 81.0806 60.7985 85.8176L60.7985 103.7076C60.7985 108.4456 56.9425 112.3016 52.2035 112.3016z"/>
    <path fill="#FFF" d="M42.2886 85.6422C41.7386 85.6422 41.2906 86.0902 41.2906 86.6412L41.2906 87.9302C41.2906 88.4812 41.7386 88.9292 42.2886 88.9292L53.3326 88.9292C53.8836 88.9292 54.3316 88.4812 54.3316 87.9302L54.3316 86.6412C54.3316 86.0902 53.8836 85.6422 53.3326 85.6422L42.2886 85.6422zM53.3326 91.4942L42.2886 91.4942C40.3236 91.4942 38.7256 89.8952 38.7256 87.9302L38.7256 86.6412C38.7256 84.6762 40.3236 83.0782 42.2886 83.0782L53.3326 83.0782C55.2976 83.0782 56.8956 84.6762 56.8956 86.6412L56.8956 87.9302C56.8956 89.8952 55.2976 91.4942 53.3326 91.4942zM44.271 96.0816L42.729 96.0816C42.021 96.0816 41.447 95.5076 41.447 94.7996 41.447 94.0916 42.021 93.5176 42.729 93.5176L44.271 93.5176C44.979 93.5176 45.553 94.0916 45.553 94.7996 45.553 95.5076 44.979 96.0816 44.271 96.0816M48.5815 96.0816L47.0395 96.0816C46.3315 96.0816 45.7575 95.5076 45.7575 94.7996 45.7575 94.0916 46.3315 93.5176 47.0395 93.5176L48.5815 93.5176C49.2895 93.5176 49.8635 94.0916 49.8635 94.7996 49.8635 95.5076 49.2895 96.0816 48.5815 96.0816M52.8921 96.0816L51.3501 96.0816C50.6421 96.0816 50.0681 95.5076 50.0681 94.7996 50.0681 94.0916 50.6421 93.5176 51.3501 93.5176L52.8921 93.5176C53.6001 93.5176 54.1741 94.0916 54.1741 94.7996 54.1741 95.5076 53.6001 96.0816 52.8921 96.0816M44.271 99.2975L42.729 99.2975C42.021 99.2975 41.447 98.7235 41.447 98.0155 41.447 97.3075 42.021 96.7335 42.729 96.7335L44.271 96.7335C44.979 96.7335 45.553 97.3075 45.553 98.0155 45.553 98.7235 44.979 99.2975 44.271 99.2975M48.5815 99.2975L47.0395 99.2975C46.3315 99.2975 45.7575 98.7235 45.7575 98.0155 45.7575 97.3075 46.3315 96.7335 47.0395 96.7335L48.5815 96.7335C49.2895 96.7335 49.8635 97.3075 49.8635 98.0155 49.8635 98.7235 49.2895 99.2975 48.5815 99.2975M52.8921 99.2975L51.3501 99.2975C50.6421 99.2975 50.0681 98.7235 50.0681 98.0155 50.0681 97.3075 50.6421 96.7335 51.3501 96.7335L52.8921 96.7335C53.6001 96.7335 54.1741 97.3075 54.1741 98.0155 54.1741 98.7235 53.6001 99.2975 52.8921 99.2975M44.271 102.5113L42.729 102.5113C42.021 102.5113 41.447 101.9373 41.447 101.2293 41.447 100.5213 42.021 99.9473 42.729 99.9473L44.271 99.9473C44.979 99.9473 45.553 100.5213 45.553 101.2293 45.553 101.9373 44.979 102.5113 44.271 102.5113M48.5815 102.5113L47.0395 102.5113C46.3315 102.5113 45.7575 101.9373 45.7575 101.2293 45.7575 100.5213 46.3315 99.9473 47.0395 99.9473L48.5815 99.9473C49.2895 99.9473 49.8635 100.5213 49.8635 101.2293 49.8635 101.9373 49.2895 102.5113 48.5815 102.5113M52.8921 102.5113L51.3501 102.5113C50.6421 102.5113 50.0681 101.9373 50.0681 101.2293 50.0681 100.5213 50.6421 99.9473 51.3501 99.9473L52.8921 99.9473C53.6001 99.9473 54.1741 100.5213 54.1741 101.2293 54.1741 101.9373 53.6001 102.5113 52.8921 102.5113M44.271 105.7262L42.729 105.7262C42.021 105.7262 41.447 105.1522 41.447 104.4442 41.447 103.7362 42.021 103.1622 42.729 103.1622L44.271 103.1622C44.979 103.1622 45.553 103.7362 45.553 104.4442 45.553 105.1522 44.979 105.7262 44.271 105.7262M48.5815 105.7262L47.0395 105.7262C46.3315 105.7262 45.7575 105.1522 45.7575 104.4442 45.7575 103.7362 46.3315 103.1622 47.0395 103.1622L48.5815 103.1622C49.2895 103.1622 49.8635 103.7362 49.8635 104.4442 49.8635 105.1522 49.2895 105.7262 48.5815 105.7262M52.8921 105.7262L51.3501 105.7262C50.6421 105.7262 50.0681 105.1522 50.0681 104.4442 50.0681 103.7362 50.6421 103.1622 51.3501 103.1622L52.8921 103.1622C53.6001 103.1622 54.1741 103.7362 54.1741 104.4442 54.1741 105.1522 53.6001 105.7262 52.8921 105.7262M78.4272 97.6041C78.0552 97.6041 77.6852 97.5031 77.3582 97.3011L58.8402 85.8491C58.2382 85.4761 58.0522 84.6861 58.4242 84.0831 58.7972 83.4821 59.5872 83.2941 60.1902 83.6671L77.8972 94.6201 77.8972 87.3891C77.8972 86.6811 78.4712 86.1071 79.1792 86.1071 79.8872 86.1071 80.4612 86.6811 80.4612 87.3891L80.4612 95.5701C80.4612 96.3061 80.0622 96.9871 79.4192 97.3461 79.1112 97.5181 78.7692 97.6041 78.4272 97.6041"/>
  </g>
</svg>
