<svg xmlns="http://www.w3.org/2000/svg" width="325" height="180" viewBox="0 0 325 180">
  <path fill="#FFF" fill-rule="evenodd" d="M196.7349,110.2969 C193.1689,110.2969 190.2669,107.3959 190.2669,103.8279 L190.2669,100.7739 L190.2669,97.5479 C190.3429,94.1359 190.3509,92.4509 190.2669,91.5419 L190.2669,91.4809 C190.2669,86.7399 193.4789,84.6179 196.6629,84.6179 C199.8519,84.6179 203.0689,86.7399 203.0689,91.4809 C203.0689,91.5259 203.0709,91.5719 203.0749,91.6169 C203.0799,91.6809 203.1459,92.5849 203.2029,94.1359 L203.2029,103.8279 C203.2029,107.3959 200.3009,110.2969 196.7349,110.2969 Z M180.2959,109.6169 C176.8049,109.6169 173.9649,106.7769 173.9649,103.2869 L173.9649,79.5569 C173.9649,74.8179 177.1839,72.6959 180.3729,72.6959 C182.0599,72.6959 183.6229,73.2919 184.7739,74.3729 C186.0779,75.5989 186.7669,77.3909 186.7669,79.5569 L186.7669,91.4789 C186.7669,91.4799 186.7669,91.4799 186.7669,91.4809 L186.7669,94.1249 L186.7669,96.9859 C186.7369,98.5999 186.6909,100.6959 186.6219,103.4489 C186.5349,106.9079 183.7559,109.6169 180.2959,109.6169 Z M138.3619,95.0409 L160.7509,35.1329 C162.4329,30.6999 166.1939,29.8589 169.1779,30.9899 C172.1519,32.1199 174.4009,35.2439 172.6979,39.7339 L153.8789,95.0409 L138.3619,95.0409 Z M142.9899,31.9179 C142.3299,29.2869 142.8789,26.9549 144.5339,25.3519 C146.2029,23.7339 148.7219,23.1039 150.9549,23.7389 C153.1659,24.3709 154.7479,26.1699 155.4079,28.8049 C155.4179,28.8459 155.4299,28.8849 155.4429,28.9239 L157.2609,34.4729 L149.4429,55.3929 L142.9899,31.9179 Z M206.5689,91.4109 C206.5349,84.6539 201.5689,81.1179 196.6629,81.1179 C194.3709,81.1179 192.0729,81.9009 190.2659,83.4139 L190.2669,79.5569 C190.2669,75.5689 188.5839,73.1509 187.1709,71.8219 C185.3679,70.1289 182.9539,69.1959 180.3729,69.1959 C177.3399,69.1959 174.2889,70.5519 172.3889,73.1779 L168.8699,61.8479 L175.9909,40.9179 C178.4049,34.5579 175.0159,29.4629 170.4199,27.7189 C166.8499,26.3629 162.4929,27.0089 159.5869,30.3309 L158.7869,27.8919 C157.8129,24.0809 155.3109,21.3429 151.9149,20.3729 C148.5039,19.4009 144.6509,20.3669 142.0989,22.8379 C139.5449,25.3109 138.6319,28.9299 139.6049,32.8069 L146.9759,59.6249 C147.0729,59.9789 147.2799,60.2659 147.5389,60.4849 L134.5599,95.2169 C124.2739,96.3499 117.9999,103.5209 117.9999,114.5289 C117.9999,143.3769 143.5099,158.1729 144.5959,158.7889 C144.8679,158.9429 145.1649,159.0159 145.4569,159.0159 C146.0659,159.0159 146.6579,158.6969 146.9799,158.1309 C147.4569,157.2909 147.1629,156.2229 146.3229,155.7439 C146.0749,155.6039 121.4999,141.3029 121.4999,114.5289 C121.4999,104.5179 127.4759,98.5409 137.4859,98.5409 L166.5849,98.5409 C165.7219,105.3359 159.9039,110.6079 152.8779,110.6079 L138.1099,110.6079 C137.1439,110.6079 136.3599,111.3919 136.3599,112.3579 L136.3599,118.2459 C136.3599,119.2119 137.1439,119.9959 138.1099,119.9959 L141.0639,119.9959 C149.4749,119.9959 156.3169,126.8379 156.3169,135.2459 L156.3169,145.8849 C156.3169,146.8519 157.1009,147.6349 158.0669,147.6349 C159.0329,147.6349 159.8169,146.8519 159.8169,145.8849 L159.8169,135.2459 C159.8169,124.9069 151.4039,116.4959 141.0639,116.4959 L139.8599,116.4959 L139.8599,114.1079 L152.8779,114.1079 C162.4259,114.1079 170.1949,106.3399 170.1949,96.7909 C170.1949,95.8239 169.4109,95.0409 168.4449,95.0409 L157.5759,95.0409 L166.9539,67.4789 L170.2559,78.1099 C170.3139,78.2969 170.4009,78.4659 170.5089,78.6149 C170.4869,78.9239 170.4649,79.2339 170.4649,79.5569 L170.4649,103.2869 C170.4649,108.7069 174.8749,113.1169 180.2959,113.1169 C183.5939,113.1169 186.4879,111.5279 188.2679,109.0629 C190.0269,111.8989 193.1589,113.7969 196.7349,113.7969 C198.9869,113.7969 201.0589,113.0379 202.7299,111.7749 C201.4049,126.7529 197.1929,146.2589 184.7859,156.3089 C184.0349,156.9169 183.9189,158.0199 184.5269,158.7699 C184.8729,159.1969 185.3789,159.4179 185.8879,159.4179 C186.2749,159.4179 186.6649,159.2909 186.9889,159.0279 C196.7609,151.1129 203.0229,137.2789 205.5999,117.9099 C207.4449,104.0429 206.6509,92.5029 206.5689,91.4109 Z"/>
</svg>
