<svg xmlns="http://www.w3.org/2000/svg" width="325" height="180" viewBox="0 0 325 180">
  <path fill="#FFF" fill-rule="evenodd" d="M231.981,83.5714 C233.839,85.7594 234.532,88.6164 233.881,91.4124 C223.729,135.0014 204.068,150.3154 193.252,155.5644 C190.039,157.1234 186.643,157.8804 183.296,157.8804 C176.97,157.8804 170.816,155.1774 166.38,150.0894 C159.154,141.7994 154.541,130.5234 152.666,116.5774 C152.519,115.4824 153.287,114.4754 154.382,114.3284 C155.481,114.1904 156.483,114.9504 156.631,116.0444 C158.399,129.2014 162.693,139.7714 169.395,147.4604 C174.977,153.8634 183.864,155.6754 191.506,151.9654 C216.096,140.0324 226.607,105.0094 229.986,90.5054 C230.346,88.9574 229.962,87.3734 228.933,86.1624 C227.9,84.9474 226.389,84.3164 224.802,84.4184 C200.375,86.0544 188,81.4544 179.814,78.4144 L179.429,78.2704 C178.393,77.8854 177.865,76.7354 178.25,75.6994 C178.634,74.6644 179.783,74.1354 180.82,74.5204 L181.207,74.6644 C189.542,77.7604 200.959,81.9974 224.535,80.4274 C227.405,80.2304 230.119,81.3824 231.981,83.5714 Z M180.4068,106.5802 C180.0198,108.4762 177.9578,109.6612 175.8028,109.2252 C173.2598,108.7062 169.7938,104.6992 170.1078,103.1602 C170.2398,102.5162 171.9868,102.0422 174.1698,102.0422 C175.1308,102.0422 176.1768,102.1342 177.2048,102.3442 C179.3568,102.7822 180.7938,104.6832 180.4068,106.5802 Z M178.0028,98.4242 C182.3168,99.3042 185.1538,103.3202 184.3258,107.3792 C183.6078,110.9012 180.3598,113.3152 176.6948,113.3152 C176.1378,113.3152 175.5728,113.2602 175.0048,113.1442 C171.0268,112.3332 165.2818,106.8092 166.1878,102.3612 C166.6178,100.2552 169.6378,96.7242 178.0028,98.4242 Z M197.3696,110.0372 C197.5506,109.1482 198.1086,108.3832 198.9396,107.8812 C199.5736,107.4982 200.3076,107.3002 201.0686,107.3002 C201.3676,107.3002 201.6706,107.3312 201.9736,107.3922 C203.2556,107.6532 205.1546,108.2652 206.6356,109.1972 C207.6426,109.8322 208.2656,110.5242 208.1846,110.9202 C208.0886,111.3922 207.2416,112.4252 205.3006,113.3292 C203.5976,114.1222 201.6976,114.5042 200.5706,114.2712 C199.4976,114.0542 198.5746,113.4732 197.9706,112.6362 C197.4016,111.8492 197.1886,110.9262 197.3696,110.0372 Z M199.7726,118.1912 C197.7136,117.7722 195.9216,116.6312 194.7276,114.9762 C193.4966,113.2732 193.0436,111.2352 193.4506,109.2382 C193.8576,107.2422 195.0726,105.5442 196.8706,104.4572 C198.6166,103.4012 200.7096,103.0552 202.7716,103.4732 C204.8806,103.9022 207.1216,104.7772 208.7666,105.8122 C212.2686,108.0182 212.3616,110.4602 212.1046,111.7192 C211.5456,114.4612 208.6606,116.1772 206.9896,116.9552 C205.0616,117.8522 203.0366,118.3352 201.3036,118.3352 C200.7606,118.3352 200.2466,118.2882 199.7726,118.1912 Z M194.7988,136.7394 C195.1868,137.6364 194.5908,138.2704 194.3998,138.4434 C194.1668,138.6544 193.5398,139.0974 192.7538,138.6584 L192.7548,138.6584 C186.8548,135.3544 180.1808,133.9944 173.4548,134.7254 C172.5608,134.8274 172.1548,134.1694 172.0228,133.8844 C171.9138,133.6494 171.6138,132.8334 172.3228,132.1584 C175.6348,129.0044 180.2848,127.6644 184.7568,128.5784 C189.2308,129.4894 192.9838,132.5404 194.7988,136.7394 Z M169.5648,129.2614 C173.8228,125.2064 179.8008,123.4854 185.5558,124.6584 C191.3098,125.8304 196.1378,129.7544 198.4708,135.1534 C199.4158,137.3404 198.8698,139.7984 197.0798,141.4134 C196.0328,142.3584 194.7388,142.8444 193.4328,142.8444 C192.5368,142.8444 191.6338,142.6154 190.7998,142.1484 L190.7988,142.1484 C185.7038,139.2944 179.7008,138.0674 173.8868,138.7024 C171.5518,138.9584 169.3958,137.7254 168.3948,135.5674 C167.3788,133.3804 167.8388,130.9044 169.5648,129.2614 Z M176.3616,33.1435 C177.3456,80.1555 161.3086,100.8455 151.6616,108.9955 C147.2246,112.7445 141.8436,114.6405 136.4346,114.6405 C131.7746,114.6405 127.0946,113.2335 122.9766,110.3905 C112.5786,103.2125 94.6006,84.1655 91.0276,37.2465 C90.8016,34.2755 91.9606,31.4515 94.2076,29.4975 C96.4566,27.5415 99.4186,26.7855 102.3336,27.4195 C124.8106,32.3315 142.7116,31.4755 164.1196,24.4715 C166.9636,23.5415 169.9946,24.0005 172.4336,25.7285 C174.8686,27.4555 176.3006,30.1585 176.3616,33.1435 Z M149.0806,105.9405 C142.2196,111.7365 132.6416,112.2035 125.2496,107.0995 C101.5376,90.7305 96.2066,52.5845 95.0166,36.9435 C94.8876,35.2455 95.5486,33.6315 96.8326,32.5145 C97.8196,31.6565 99.0476,31.2025 100.3196,31.2025 C100.7046,31.2025 101.0936,31.2435 101.4806,31.3285 C124.7126,36.4045 143.2216,35.5195 165.3636,28.2725 C166.9906,27.7415 168.7246,28.0025 170.1196,28.9915 C171.5096,29.9775 172.3276,31.5205 172.3626,33.2265 C172.6906,48.8985 171.0786,87.3565 149.0806,105.9405 M122.1039,70.4836 C126.6699,70.2596 130.2149,66.5846 130.0069,62.2926 L130.0069,62.2916 C129.7969,57.9996 125.8969,54.6916 121.3459,54.9076 C112.4609,55.3426 110.3169,59.6606 110.4249,61.8816 C110.6439,66.4016 117.6429,70.4906 121.8139,70.4906 C121.9119,70.4906 122.0089,70.4876 122.1039,70.4836 M114.4199,61.6886 C114.3689,60.6266 117.8129,59.0846 121.5399,58.9036 C121.6199,58.8996 121.6989,58.8976 121.7769,58.8976 C124.0359,58.8976 125.9129,60.4666 126.0119,62.4866 C126.1119,64.5776 124.2719,66.3726 121.9099,66.4876 C119.1499,66.6406 114.5019,63.3726 114.4199,61.6886 Z M153.0972,62.9816 C151.5522,64.2466 149.6892,65.1356 148.4632,65.1956 C146.0892,65.3056 144.0922,63.7026 143.9912,61.6126 L143.9912,61.6116 C143.9432,60.6296 144.3222,59.6766 145.0592,58.9286 C145.8402,58.1356 146.9172,57.6686 148.0932,57.6116 C148.3082,57.6006 148.5392,57.5946 148.7852,57.5946 C150.1222,57.5946 151.8592,57.7636 153.3502,58.2456 C154.6022,58.6496 155.4272,59.2176 155.4502,59.6926 C155.4802,60.3246 154.7572,61.6236 153.0972,62.9816 Z M154.5802,54.4386 C158.6632,55.7576 159.3812,58.1746 159.4452,59.4986 C159.5862,62.3916 157.1152,64.8626 155.6302,66.0776 C153.3732,67.9246 150.7662,69.0876 148.6572,69.1916 C148.5132,69.1986 148.3682,69.2016 148.2252,69.2016 C143.8472,69.2016 140.1972,65.9636 139.9952,61.8066 C139.8922,59.6956 140.6792,57.6756 142.2092,56.1226 C143.6962,54.6126 145.7172,53.7216 147.8992,53.6156 C150.1452,53.5036 152.6462,53.8146 154.5802,54.4386 Z M148.3154,85.7306 C145.7394,89.8346 141.3194,92.4246 136.4894,92.6586 C131.6774,92.8966 127.0094,90.7466 124.0484,86.9126 C123.3774,86.0426 123.8474,85.1896 124.0074,84.9496 C124.1374,84.7546 124.5714,84.2026 125.3144,84.2026 C125.4474,84.2026 125.5904,84.2196 125.7434,84.2606 C132.4984,86.0626 139.8254,85.7096 146.3714,83.2566 C147.3444,82.8906 147.9904,83.5606 148.1644,83.7746 C148.3474,83.9986 148.8984,84.8016 148.3154,85.7306 Z M144.9684,79.5106 C139.1944,81.6726 132.7334,81.9876 126.7754,80.3956 L126.7744,80.3956 C124.4334,79.7726 122.0394,80.6876 120.6774,82.7336 C119.2974,84.8076 119.3784,87.4076 120.8824,89.3566 C124.4544,93.9826 129.9654,96.6766 135.7694,96.6756 C136.0734,96.6756 136.3784,96.6686 136.6834,96.6546 C142.8184,96.3566 148.4334,93.0686 151.7034,87.8566 C153.0114,85.7716 152.8394,83.1766 151.2634,81.2456 C149.7114,79.3426 147.2404,78.6616 144.9684,79.5106"/>
</svg>
