<svg xmlns="http://www.w3.org/2000/svg" width="325" height="180" viewBox="0 0 325 180">
  <path fill="#FFF" fill-rule="evenodd" d="M168.8409,48.2398 C168.6119,48.2398 168.3839,48.2638 168.1629,48.3148 C167.6609,48.4308 167.0079,48.7278 166.7469,49.4868 C153.6349,87.6708 135.0789,96.6178 118.7089,104.5118 C111.6119,107.9338 104.9099,111.1668 99.2289,116.5538 C97.2559,118.4258 94.1159,121.8788 95.2579,123.9928 C98.4199,129.8498 126.5179,129.7218 151.9799,123.7298 C173.9459,118.5608 203.7419,97.7428 218.0619,87.7378 C223.2159,84.1358 225.7499,82.3798 227.0269,81.7848 C228.9489,80.8898 227.5389,73.5628 224.9939,67.6098 C224.9319,67.4638 224.8869,67.3108 224.8609,67.1538 C221.5539,47.4018 212.3419,41.9258 208.4669,40.4738 C205.5739,51.4188 200.9559,57.8598 194.7239,59.6308 C186.2369,62.0448 177.1839,55.2548 171.0849,49.1358 C170.5179,48.5648 169.6729,48.2398 168.8409,48.2398 M95.2865715,129.173627 L95.3933,131.688 C95.5213,134.703 97.5743,137.237 100.5023,137.993 C112.3083,141.038 135.4943,138.794 152.0383,135.42 C174.1133,130.918 206.3283,108.807 221.8093,98.18 C223.3643,97.114 224.7553,96.159 225.9553,95.346 C228.1363,93.868 229.2963,91.326 228.9833,88.711 L228.496773,85.5218506 C227.271298,86.1820879 224.048663,88.4331737 220.3529,91.0158 C205.8289,101.1638 175.6089,122.2788 152.8959,127.6248 C143.6369,129.8028 127.6769,132.3148 114.2839,132.3148 C106.459044,132.3148 99.510729,131.45761 95.2865715,129.173627 Z M91.0569226,123.838264 C90.64625,120.87551 92.4597287,117.460088 96.4769,113.6518 C102.6109,107.8348 109.5859,104.4708 116.9709,100.9098 C133.4029,92.9858 150.3939,84.7928 162.9639,48.1868 C163.6229,46.2688 165.1919,44.8948 167.2659,44.4178 C169.6179,43.8738 172.2319,44.6188 173.9189,46.3108 C178.2909,50.6988 186.6679,57.7558 193.6299,55.7838 C198.7329,54.3328 202.5829,48.1968 205.0739,37.5458 C205.3099,36.5398 206.2769,35.8798 207.2939,36.0188 C207.9779,36.1128 224.0529,38.6338 228.7659,66.2598 C229.704188,68.4928409 232.490657,75.6883466 231.763821,80.7479726 C231.818668,80.8858165 231.858881,81.0320062 231.8823,81.185 L232.9473,88.172 C233.4463,92.343 231.6243,96.336 228.1993,98.657 C227.0053,99.466 225.6213,100.417 224.0733,101.479 C208.3753,112.253 175.7083,134.675 152.8373,139.34 C141.2923,141.695 127.2553,143.439 115.4483,143.439 C109.3083,143.439 103.7743,142.968 99.5023,141.866 C94.8563,140.666 91.5993,136.644 91.3973,131.858 L91.0569226,123.838264 Z M190.987342,105.770194 L160.7386,91.873 C159.7346,91.412 159.2946,90.224 159.7556,89.22 C160.2176,88.217 161.4046,87.779 162.4086,88.238 L195.012326,103.218117 L190.987342,105.770194 Z M203.584871,97.6911471 L172.1647,83.3052 C171.1617,82.8452 170.7197,81.6592 171.1797,80.6542 C171.6387,79.6482 172.8267,79.2072 173.8307,79.6682 L207.458323,95.0658152 L203.584871,97.6911471 Z"/>
</svg>
