<svg xmlns="http://www.w3.org/2000/svg" xmlns:xlink="http://www.w3.org/1999/xlink" width="325" height="180" viewBox="0 0 325 180">
  <defs>
    <polygon id="series12-icon-3-a" points=".981 .58 18.161 .58 18.161 45.415 .981 45.415"/>
  </defs>
  <g fill="none" fill-rule="evenodd" transform="translate(123 22)">
    <path fill="#FFF" d="M47.5988,135.42 L26.4128,135.42 C25.8568,135.42 25.3258,135.189 24.9468,134.781 C24.5688,134.373 24.3768,133.826 24.4178,133.272 L29.7998,60.745 C29.8818,59.644 30.8408,58.814 31.9428,58.899 C33.0438,58.981 33.8708,59.941 33.7888,61.042 L28.5668,131.42 L45.4408,131.42 L39.8758,58.291 C39.7918,57.191 40.6168,56.23 41.7178,56.146 C42.8208,56.048 43.7798,56.887 43.8638,57.988 L49.5928,133.269 C49.6358,133.823 49.4438,134.371 49.0658,134.779 C48.6868,135.188 48.1558,135.42 47.5988,135.42"/>
    <g transform="translate(24 .42)">
      <mask id="series12-icon-3-b" fill="#fff">
        <use xlink:href="#series12-icon-3-a"/>
      </mask>
      <path fill="#FFF" d="M7.113,45.415 C6.333,45.415 5.591,44.955 5.269,44.19 C4.308,41.911 3.481,38.193 2.504,31.761 C1.742,26.745 -1.705,1.675 5.278,0.612 C12.259,-0.438 16.417,24.518 17.178,29.531 C18.034,35.161 18.327,39.239 18.072,41.998 C17.97,43.098 16.994,43.902 15.897,43.806 C14.797,43.705 13.988,42.73 14.089,41.631 C14.31,39.232 14.019,35.364 13.224,30.133 C11.002,15.509 7.64,7.102 5.944,4.992 C4.951,7.512 4.237,16.538 6.459,31.159 C7.371,37.166 8.141,40.706 8.955,42.638 C9.384,43.655 8.906,44.828 7.889,45.257 C7.635,45.364 7.372,45.415 7.113,45.415" mask="url(#series12-icon-3-b)"/>
    </g>
    <path fill="#FFF" d="M3.6081,77.3311 C2.3671,77.3311 1.3671,76.9761 0.7121,76.1551 C-0.9729,74.0491 0.3041,70.7381 4.8521,65.4221 C8.4791,61.1831 13.7891,56.1991 19.8051,51.3901 C23.8731,48.1401 27.0541,45.9511 29.5311,44.6991 C30.5161,44.1981 31.7191,44.5961 32.2181,45.5831 C32.7161,46.5681 32.3211,47.7711 31.3351,48.2691 C29.1371,49.3801 26.0991,51.4801 22.3031,54.5151 C10.7501,63.7501 5.1511,70.8651 4.1711,73.3901 C6.8491,72.9891 15.0231,69.0961 26.5751,59.8601 C31.3241,56.0651 34.2361,53.2971 35.4791,51.3961 C36.0841,50.4721 37.3221,50.2141 38.2471,50.8171 C39.1711,51.4221 39.4311,52.6611 38.8261,53.5861 C37.3071,55.9091 34.2991,58.8081 29.0731,62.9851 C25.7001,65.6821 10.7121,77.3311 3.6081,77.3311"/>
    <path fill="#FFF" d="M73.8542,66.7052 C72.2482,66.7052 70.2742,66.4812 67.8972,66.0392 C62.4132,65.0182 55.4422,62.9102 48.2692,60.1042 C41.2742,57.3682 37.7942,55.6612 35.8572,54.0162 C35.0162,53.3002 34.9132,52.0382 35.6282,51.1962 C36.3432,50.3532 37.6062,50.2532 38.4482,50.9672 C39.9772,52.2672 43.3502,53.8862 49.7262,56.3802 C63.5002,61.7672 72.4612,63.0592 75.1382,62.6442 C73.4522,60.5252 65.9922,55.3932 52.2192,50.0062 C47.4982,48.1592 43.8832,47.0372 41.4742,46.6722 C40.3822,46.5062 39.6312,45.4862 39.7972,44.3942 C39.9632,43.3032 40.9772,42.5452 42.0752,42.7172 C44.8142,43.1332 48.6092,44.2992 53.6762,46.2812 C58.4002,48.1292 81.8342,57.6792 79.2632,64.2582 C78.6202,65.9012 76.8962,66.7052 73.8542,66.7052"/>
    <path fill="#FFF" d="M36.2863 42.8223C36.0923 42.8223 35.8973 42.8373 35.7023 42.8673 34.6883 43.0203 33.7953 43.5603 33.1863 44.3863 32.5783 45.2123 32.3283 46.2253 32.4833 47.2383 32.8013 49.3303 34.7583 50.7703 36.8543 50.4583 38.9463 50.1393 40.3903 48.1783 40.0733 46.0863 39.9193 45.0723 39.3793 44.1793 38.5543 43.5713 37.8873 43.0803 37.0983 42.8223 36.2863 42.8223M36.2743 54.5023C32.4663 54.5023 29.1163 51.7163 28.5283 47.8393 28.2133 45.7693 28.7243 43.7013 29.9663 42.0143 31.2073 40.3293 33.0313 39.2263 35.1013 38.9123 37.1693 38.6003 39.2403 39.1093 40.9263 40.3503 42.6123 41.5933 43.7133 43.4163 44.0283 45.4863 44.6763 49.7583 41.7273 53.7623 37.4553 54.4133 37.0583 54.4723 36.6643 54.5023 36.2743 54.5023M4.3835 56.0372C3.4115 56.0372 2.5585 55.3272 2.4085 54.3372.7485 43.3972 4.5125 32.2662 12.4765 24.5632 13.2705 23.7952 14.5365 23.8162 15.3045 24.6102 16.0725 25.4042 16.0515 26.6712 15.2575 27.4382 8.2215 34.2432 4.8975 44.0752 6.3635 53.7372 6.5295 54.8292 5.7785 55.8492 4.6855 56.0152 4.5845 56.0302 4.4835 56.0372 4.3835 56.0372M27.0739 83.1856C26.9559 83.1856 26.8359 83.1756 26.7159 83.1536 23.3879 82.5516 20.1509 81.5046 17.0939 80.0396 16.0969 79.5636 15.6769 78.3696 16.1539 77.3726 16.6309 76.3766 17.8239 75.9556 18.8209 76.4326 21.5559 77.7426 24.4519 78.6796 27.4279 79.2176 28.5139 79.4146 29.2359 80.4546 29.0399 81.5406 28.8649 82.5076 28.0229 83.1856 27.0739 83.1856M68.1257 46.3536C67.1537 46.3536 66.3017 45.6446 66.1507 44.6546 64.5927 34.4006 57.9957 25.7606 48.5027 21.5446 47.4937 21.0956 47.0387 19.9146 47.4877 18.9056 47.9357 17.8946 49.1167 17.4416 50.1267 17.8886 60.8727 22.6626 68.3407 32.4436 70.1057 44.0526 70.2717 45.1456 69.5207 46.1656 68.4287 46.3316 68.3267 46.3466 68.2257 46.3536 68.1257 46.3536M49.8024 135.42L24.2084 135.42C23.1044 135.42 22.2084 134.524 22.2084 133.42 22.2084 132.316 23.1044 131.42 24.2084 131.42L49.8024 131.42C50.9064 131.42 51.8024 132.316 51.8024 133.42 51.8024 134.524 50.9064 135.42 49.8024 135.42"/>
  </g>
</svg>
