<svg xmlns="http://www.w3.org/2000/svg" width="325" height="180" viewBox="0 0 325 180">
  <path fill="#FFF" fill-rule="evenodd" d="M140.2783,93.7842 L126.6503,93.1602 C125.1213,93.0902 123.9333,91.7462 124.0033,90.1632 L124.6913,74.5392 C124.9143,69.4782 127.0723,64.8292 130.7673,61.4512 C133.8853,58.6022 137.7873,56.9592 141.9103,56.7272 L140.2783,93.7842 Z M142.1883,97.8732 C142.1583,97.8732 142.1283,97.8732 142.0963,97.8712 L126.4663,97.1572 C122.7383,96.9852 119.8413,93.7692 120.0073,89.9882 L120.6953,74.3642 C120.9653,68.2332 123.5843,62.5992 128.0693,58.4992 C132.4403,54.5042 138.0863,52.4482 143.9473,52.7212 L144.0943,52.7292 C145.1953,52.7812 146.0473,53.7132 145.9983,54.8142 L144.1863,95.9612 C144.1633,96.4922 143.9293,96.9922 143.5383,97.3492 C143.1693,97.6872 142.6863,97.8732 142.1883,97.8732 Z M205.2451,140.9844 C205.4251,142.0744 204.6861,143.1034 203.5971,143.2824 C203.4861,143.3004 203.3771,143.3094 203.2691,143.3094 C202.3071,143.3094 201.4591,142.6134 201.2981,141.6334 L192.0831,85.6664 L177.1661,89.3214 C176.6161,89.4554 176.0331,89.3514 175.5641,89.0324 C175.0971,88.7134 174.7851,88.2104 174.7091,87.6484 L171.9301,67.1964 C171.9131,67.0784 171.9081,66.9604 171.9131,66.8414 C172.0091,64.5854 171.1731,62.3694 169.6201,60.7644 C168.1011,59.1944 166.0861,58.3094 163.9041,58.3614 C159.7631,58.4004 156.2371,62.1454 156.0441,66.7104 L155.1261,88.4014 C155.0391,90.4574 155.7911,92.4844 157.1881,93.9614 L178.6631,116.3514 C179.9251,117.6864 180.5991,119.4964 180.5211,121.3294 L179.4951,150.1444 C179.4561,151.2234 178.5691,152.0724 177.4971,152.0724 C177.4741,152.0724 177.4491,152.0724 177.4251,152.0714 C176.3211,152.0324 175.4581,151.1054 175.4971,150.0014 L176.5241,121.1734 C176.5571,120.4014 176.2801,119.6534 175.7661,119.1094 L154.2931,96.7204 C152.1461,94.4524 150.9971,91.3624 151.1301,88.2324 L152.0481,66.5414 C152.3341,59.7704 157.5251,54.4204 163.8671,54.3614 C163.9051,54.3614 163.9441,54.3614 163.9811,54.3614 C167.2141,54.3614 170.2321,55.6454 172.4951,57.9834 C174.7651,60.3294 176.0051,63.5424 175.9161,66.8254 L178.3731,84.9074 L191.4311,81.7084 L190.5561,76.3914 C190.3761,75.3014 191.1141,74.2734 192.2041,74.0934 C193.3011,73.9144 194.3241,74.6524 194.5031,75.7424 L195.3281,80.7534 L197.4251,80.2394 C198.4881,79.9734 199.5801,80.6324 199.8431,81.7064 C200.1051,82.7784 199.4491,83.8614 198.3761,84.1244 L195.9801,84.7114 L205.2451,140.9844 Z M160.1171,27.0684 C161.5801,25.7274 163.4431,24.9994 165.3951,24.9994 C165.5121,24.9994 165.6281,25.0024 165.7441,25.0074 C170.1141,25.1994 173.5151,29.0004 173.3271,33.4814 C173.2331,35.6874 172.2971,37.7144 170.6911,39.1874 C169.1401,40.6094 167.1501,41.3384 165.0621,41.2504 C160.6921,41.0574 157.2911,37.2554 157.4791,32.7764 C157.5741,30.5684 158.5111,28.5414 160.1171,27.0684 M164.8871,45.2464 C158.3171,44.9564 153.2021,39.2864 153.4831,32.6074 C153.6231,29.3294 155.0181,26.3164 157.4141,24.1204 C159.7531,21.9764 162.7661,20.8744 165.9201,21.0114 C172.4891,21.2994 177.6041,26.9694 177.3231,33.6494 L177.3231,33.6504 C177.1841,36.9254 175.7891,39.9394 173.3941,42.1344 C171.1861,44.1594 168.3701,45.2574 165.4141,45.2574 C165.2381,45.2574 165.0621,45.2544 164.8871,45.2464 Z M157.3603,108.6143 C158.4133,108.9463 158.9993,110.0683 158.6683,111.1223 L144.0993,157.4353 C143.8313,158.2893 143.0423,158.8363 142.1923,158.8363 C141.9933,158.8363 141.7913,158.8063 141.5903,158.7433 C140.5383,158.4113 139.9523,157.2893 140.2833,156.2353 L154.8513,109.9223 C155.1833,108.8683 156.3063,108.2833 157.3603,108.6143 Z"/>
</svg>
