<svg xmlns="http://www.w3.org/2000/svg" width="325" height="180" viewBox="0 0 325 180">
  <path fill="#FFF" fill-rule="evenodd" d="M162.1602,142.32 C133.3992,142.32 110.0002,118.921 110.0002,90.16 C110.0002,61.398 133.3992,38 162.1602,38 C190.9232,38 214.3222,61.398 214.3222,90.16 C214.3222,118.921 190.9232,142.32 162.1602,142.32 M162.1602,34 C131.1932,34 106.0002,59.193 106.0002,90.16 C106.0002,121.127 131.1932,146.32 162.1602,146.32 C193.1282,146.32 218.3222,121.127 218.3222,90.16 C218.3222,59.193 193.1282,34 162.1602,34 M204.1006,90.3434 L162.2006,89.9214 L162.2006,49.4624 C162.2006,48.3574 161.3046,47.4624 160.2006,47.4624 C159.0956,47.4624 158.2006,48.3574 158.2006,49.4624 L158.2006,91.9024 C158.2006,92.9974 159.0826,93.8904 160.1796,93.9024 L204.0596,94.3434 L204.0796,94.3434 C205.1756,94.3434 206.0696,93.4614 206.0796,92.3644 C206.0906,91.2594 205.2046,90.3554 204.1006,90.3434"/>
</svg>
