<svg xmlns="http://www.w3.org/2000/svg" width="325" height="180" viewBox="0 0 325 180">
  <path fill="#FFF" fill-rule="evenodd" d="M163.7644,42.5006 C162.9344,42.5006 162.0974,42.5126 161.2504,42.5376 C142.6174,43.0736 120.0864,48.5826 118.5674,71.7746 C117.7224,84.7056 124.4814,96.5506 138.6594,106.9816 C139.1074,107.3126 139.3714,107.8346 139.3714,108.3916 L139.3714,135.4986 C139.3714,136.9506 140.5534,138.1306 142.0044,138.1306 L182.8734,138.1306 C184.3254,138.1306 185.5054,136.9506 185.5054,135.4986 L185.5054,108.3916 C185.5054,107.8346 185.7704,107.3126 186.2184,106.9816 C199.7974,96.9906 206.3984,86.4416 206.3984,74.7346 C206.3984,66.0286 203.6044,58.8996 198.0934,53.5456 C190.7244,46.3866 178.5984,42.5006 163.7644,42.5006 M182.8734,141.6306 L142.0044,141.6306 C138.6224,141.6306 135.8714,138.8796 135.8714,135.4986 L135.8714,109.2706 C121.3614,98.3516 114.1744,85.3216 115.0754,71.5466 C116.4124,51.1096 132.3454,39.8686 161.1504,39.0386 C178.0834,38.5466 192.0684,42.8116 200.5324,51.0356 C206.7474,57.0736 209.8984,65.0466 209.8984,74.7346 C209.8984,87.4206 203.0624,98.7256 189.0054,109.2716 L189.0054,135.4986 C189.0054,138.8796 186.2554,141.6306 182.8734,141.6306 M139.3318,128.1784 L139.3318,124.6784 L185.487549,124.6784 L185.487549,128.1784 L139.3318,128.1784 Z M142.2556,68.0719 C138.0846,68.0719 134.6916,71.4649 134.6916,75.6359 C134.6916,79.9089 138.2536,85.3299 142.2556,85.3299 C146.2576,85.3299 149.8186,79.9089 149.8186,75.6359 C149.8186,71.4649 146.4256,68.0719 142.2556,68.0719 M142.2556,88.8299 C136.0246,88.8299 131.1916,81.7379 131.1916,75.6359 C131.1916,69.5349 136.1546,64.5719 142.2556,64.5719 C148.3556,64.5719 153.3186,69.5349 153.3186,75.6359 C153.3186,81.7379 148.4856,88.8299 142.2556,88.8299 M182.6414,68.0719 C178.4704,68.0719 175.0774,71.4649 175.0774,75.6359 C175.0774,79.9089 178.6394,85.3299 182.6414,85.3299 C186.6434,85.3299 190.2044,79.9089 190.2044,75.6359 C190.2044,71.4649 186.8114,68.0719 182.6414,68.0719 M182.6414,88.8299 C176.4104,88.8299 171.5774,81.7379 171.5774,75.6359 C171.5774,69.5349 176.5404,64.5719 182.6414,64.5719 C188.7414,64.5719 193.7044,69.5349 193.7044,75.6359 C193.7044,81.7379 188.8714,88.8299 182.6414,88.8299 M157.6668,107.8771 L168.0958,107.8771 C167.1968,105.4031 166.6328,102.7911 166.1288,100.4591 C165.1708,96.0231 164.4288,93.1151 162.9018,93.1151 C161.0358,93.1151 160.0548,97.6761 159.1898,101.7001 C158.7468,103.7611 158.2898,105.8851 157.6668,107.8771 M168.5058,111.3771 L157.2978,111.3771 C156.2208,111.3771 155.1248,110.8201 154.5078,109.9571 C153.9758,109.2131 153.8328,108.3081 154.1168,107.4731 C154.7988,105.4691 155.2918,103.1791 155.7678,100.9641 C156.9678,95.3851 158.2088,89.6151 162.9018,89.6151 C167.3678,89.6151 168.4278,94.5231 169.5498,99.7201 C170.1058,102.2941 170.6808,104.9541 171.6538,107.3871 C171.9838,108.2101 171.8778,109.1191 171.3618,109.8811 C170.7478,110.7901 169.6258,111.3771 168.5058,111.3771 M148.999989,124.673524 L148.999989,119.050003 C148.999989,118.083003 149.783989,117.300003 150.749989,117.300003 C151.715989,117.300003 152.499989,118.083003 152.499989,119.050003 L152.499989,124.673524 L148.999989,124.673524 Z M160.999989,124.673524 L160.999989,119.050003 C160.999989,118.083003 161.783989,117.300003 162.749989,117.300003 C163.715989,117.300003 164.499989,118.083003 164.499989,119.050003 L164.499989,124.673524 L160.999989,124.673524 Z M172.999989,124.673524 L172.999989,119.050003 C172.999989,118.083003 173.783989,117.300003 174.749989,117.300003 C175.715989,117.300003 176.499989,118.083003 176.499989,119.050003 L176.499989,124.673524 L172.999989,124.673524 Z M148.999989,128.199997 L148.999989,133.823518 C148.999989,134.790518 149.783989,135.573518 150.749989,135.573518 C151.715989,135.573518 152.499989,134.790518 152.499989,133.823518 L152.499989,128.199997 L148.999989,128.199997 Z M160.999989,128.199997 L160.999989,133.823518 C160.999989,134.790518 161.783989,135.573518 162.749989,135.573518 C163.715989,135.573518 164.499989,134.790518 164.499989,133.823518 L164.499989,128.199997 L160.999989,128.199997 Z M172.999989,128.199997 L172.999989,133.823518 C172.999989,134.790518 173.783989,135.573518 174.749989,135.573518 C175.715989,135.573518 176.499989,134.790518 176.499989,133.823518 L176.499989,128.199997 L172.999989,128.199997 Z"/>
</svg>
