<svg xmlns="http://www.w3.org/2000/svg" width="325" height="180" viewBox="0 0 325 180">
  <path fill="#FFF" fill-rule="evenodd" d="M199.0747,57.5446 C200.8457,59.5466 204.9697,64.7656 204.9697,69.9366 L204.2617,122.2206 C204.2487,123.1786 203.4677,123.9466 202.5127,123.9466 L202.4877,123.9466 C201.5217,123.9336 200.7487,123.1396 200.7617,122.1726 L201.4697,69.9126 C201.4697,66.4236 198.6357,62.4946 197.0907,60.6126 C195.2767,62.6066 191.7777,66.5326 191.7777,69.9366 L192.1887,98.0076 C192.2027,98.9736 191.4307,99.7686 190.4637,99.7826 C189.5197,99.7526 188.7027,99.0246 188.6887,98.0586 L188.2777,69.9616 C188.2777,65.0906 192.5747,60.3736 194.6387,58.1066 C194.8327,57.8936 195.0047,57.7056 195.1487,57.5426 C196.1477,56.4096 198.0717,56.4086 199.0747,57.5446 Z M143.9204,81.8322 C142.9794,81.8322 142.2024,81.0852 142.1724,80.1382 L141.4104,56.2732 C141.4094,47.9322 147.4244,38.1712 159.2884,27.2062 C161.0284,25.5982 163.8594,25.5982 165.6014,27.2062 C177.1374,37.8692 183.2354,47.9012 183.2354,56.2172 L182.4644,80.1392 C182.4334,81.1042 181.6484,81.8612 180.6584,81.8312 C179.6924,81.8002 178.9354,80.9922 178.9664,80.0252 L179.7364,56.1612 C179.7354,48.9022 174.0264,39.7592 163.2254,29.7762 C162.8234,29.4052 162.0654,29.4052 161.6644,29.7762 C150.5464,40.0522 144.9094,48.9482 144.9094,56.2172 L145.6704,80.0262 C145.7014,80.9922 144.9434,81.8002 143.9774,81.8312 C143.9584,81.8322 143.9394,81.8322 143.9204,81.8322 Z M162.4473,72.2331 C163.9653,72.2331 165.3773,72.9281 166.2243,74.0931 C166.7923,74.8761 166.6193,75.9701 165.8373,76.5381 C165.5273,76.7641 165.1673,76.8731 164.8103,76.8731 C164.2693,76.8731 163.7363,76.6231 163.3933,76.1521 C163.2463,75.9491 162.9203,75.7331 162.4473,75.7331 C161.9743,75.7331 161.6483,75.9501 161.5003,76.1521 C160.9313,76.9341 159.8383,77.1061 159.0553,76.5381 C158.2743,75.9691 158.1013,74.8751 158.6703,74.0931 C159.5183,72.9281 160.9293,72.2331 162.4473,72.2331 Z M174.2695,120.5104 L174.2695,103.0924 C175.6095,105.2044 177.4545,107.3744 180.0085,109.3794 C185.3895,113.6034 187.0045,117.0794 187.4875,118.8724 L174.2695,120.5104 Z M170.7695,91.6524 C170.7665,91.7324 170.7635,91.9024 170.7695,92.1574 L170.7695,123.8214 C169.1945,124.0734 165.8555,124.3424 162.4475,124.3424 C159.0875,124.3424 155.7955,124.0764 154.2385,123.8254 L154.2385,91.9354 C154.2405,91.8134 154.2395,91.7264 154.2385,91.6754 L154.2385,76.8414 C154.2385,71.6894 159.1315,65.9554 162.4475,65.9554 C165.8095,65.9554 170.7695,71.6894 170.7695,76.8414 L170.7695,91.6524 Z M150.7385,120.5124 L137.4115,118.8714 C137.8975,117.0614 139.5185,113.5924 144.8845,109.3794 C147.4985,107.3274 149.3795,105.1034 150.7385,102.9444 L150.7385,120.5124 Z M182.1695,106.6264 C174.9055,100.9244 174.3065,93.8024 174.2695,92.1274 L174.2695,76.8414 C174.2695,69.9844 168.0825,62.4554 162.4475,62.4554 C156.8665,62.4554 150.7385,69.9844 150.7385,76.8414 L150.7385,91.9274 C150.7205,93.2194 150.2795,100.6964 142.7235,106.6264 C133.2435,114.0684 133.6495,119.9554 133.7265,120.6024 C133.8225,121.4024 134.4515,122.0334 135.2505,122.1314 L150.7385,124.0384 L150.7385,125.0444 C150.7385,126.2904 150.7385,127.8424 162.4475,127.8424 C174.2695,127.8424 174.2695,126.2904 174.2695,125.0444 L174.2695,124.0374 L189.6455,122.1314 C190.4435,122.0324 191.0725,121.4014 191.1675,120.6024 C191.2455,119.9554 191.6495,114.0684 182.1695,106.6264 Z M130.5786,135.6574 C129.3896,135.6574 128.4216,136.6244 128.4216,137.8144 C128.4216,139.8284 129.5346,146.0054 130.5786,148.6484 C131.6236,146.0054 132.7356,139.8284 132.7356,137.8144 C132.7356,136.6244 131.7676,135.6574 130.5786,135.6574 M130.5786,153.0504 C125.8786,153.0504 124.9216,137.9664 124.9216,137.8144 C124.9216,134.6954 127.4596,132.1574 130.5786,132.1574 C133.6986,132.1574 136.2356,134.6954 136.2356,137.8144 C136.2356,137.9664 135.2786,153.0504 130.5786,153.0504 M194.3154,135.6574 C193.1264,135.6574 192.1584,136.6244 192.1584,137.8144 C192.1584,139.8284 193.2714,146.0054 194.3154,148.6484 C195.3604,146.0054 196.4724,139.8284 196.4724,137.8144 C196.4724,136.6244 195.5044,135.6574 194.3154,135.6574 M194.3154,153.0504 C189.6154,153.0504 188.6584,137.9664 188.6584,137.8144 C188.6584,134.6954 191.1964,132.1574 194.3154,132.1574 C197.4354,132.1574 199.9724,134.6954 199.9724,137.8144 C199.9724,137.9664 199.0154,153.0504 194.3154,153.0504 M162.4468,135.4401 C160.8008,135.4401 159.4628,136.5221 159.4628,137.8511 C159.4628,140.2631 161.0818,147.9241 162.4468,150.0951 C163.8128,147.9241 165.4308,140.2631 165.4308,137.8511 C165.4308,136.5221 164.0928,135.4401 162.4468,135.4401 M162.4468,153.9651 C157.3668,153.9651 155.9628,138.0121 155.9628,137.8511 C155.9628,134.5911 158.8718,131.9401 162.4468,131.9401 C166.0228,131.9401 168.9308,134.5911 168.9308,137.8511 C168.9308,138.0121 167.5278,153.9651 162.4468,153.9651 Z M122.4565,123.9469 C121.5005,123.9469 120.7205,123.1789 120.7065,122.2199 L119.9995,69.9599 C119.9995,64.7589 124.1235,59.5439 125.8955,57.5419 C126.3965,56.9769 127.1105,56.6519 127.8555,56.6509 L127.8575,56.6509 C128.6025,56.6509 129.3175,56.9749 129.8195,57.5399 L130.0285,57.7759 C131.9135,59.8959 136.3265,64.8589 136.3265,69.9359 L135.9125,98.2659 C135.8975,99.2239 135.1175,99.9909 134.1625,99.9909 L134.1365,99.9909 C133.1695,99.9769 132.3975,99.1819 132.4125,98.2159 L132.8265,69.9109 C132.8265,66.5269 129.5745,62.5629 127.8715,60.6199 C126.3245,62.5039 123.4995,66.4259 123.4995,69.9359 L124.2065,122.1739 C124.2195,123.1399 123.4475,123.9339 122.4805,123.9469 L122.4565,123.9469 Z"/>
</svg>
