<svg xmlns="http://www.w3.org/2000/svg" width="325" height="180" viewBox="0 0 325 180">
  <path fill="#FFF" fill-rule="evenodd" d="M153.9502,91.9421 L113.977539,91.9421 L113.977539,87.9421 L151.883179,87.9421 C151.900347,90.6087667 151.900347,91.9421 151.883179,91.9421 L153.9502,91.9421 Z M213.372655,91.9421 L173.399994,91.9421 L173.399994,87.9421 L211.305634,87.9421 C211.322802,90.6087667 211.322802,91.9421 211.305634,91.9421 L213.372655,91.9421 Z M155.951,94.934 L155.951,84.951 L169.43,84.951 L169.43,94.934 L155.951,94.934 Z M171.43,98.934 L153.951,98.934 C152.847,98.934 151.951,98.038 151.951,96.934 L151.951,82.951 C151.951,81.846 152.847,80.951 153.951,80.951 L171.43,80.951 C172.534,80.951 173.43,81.846 173.43,82.951 L173.43,96.934 C173.43,98.038 172.534,98.934 171.43,98.934 Z M181.917,56.9836 C180.813,56.9836 179.917,56.0876 179.917,54.9836 C179.917,48.3756 174.541,42.9996 167.934,42.9996 L157.446,42.9996 C150.839,42.9996 145.463,48.3756 145.463,54.9836 C145.463,56.0876 144.567,56.9836 143.463,56.9836 C142.358,56.9836 141.463,56.0876 141.463,54.9836 C141.463,46.1706 148.633,38.9996 157.446,38.9996 L167.934,38.9996 C176.747,38.9996 183.917,46.1706 183.917,54.9836 C183.917,56.0876 183.021,56.9836 181.917,56.9836 Z M114.5,67.4714 C114.225,67.4714 114,67.6954 114,67.9714 L114,136.3844 C114,136.6594 114.225,136.8844 114.5,136.8844 L210.88,136.8844 C211.155,136.8844 211.38,136.6594 211.38,136.3844 L211.38,67.9714 C211.38,67.6954 211.155,67.4714 210.88,67.4714 L114.5,67.4714 Z M114.5,140.8844 C112.019,140.8844 110,138.8654 110,136.3844 L110,67.9714 C110,65.4904 112.019,63.4714 114.5,63.4714 L210.88,63.4714 C213.361,63.4714 215.38,65.4904 215.38,67.9714 L215.38,136.3844 C215.38,138.8654 213.361,140.8844 210.88,140.8844 L114.5,140.8844 Z"/>
</svg>
