<svg xmlns="http://www.w3.org/2000/svg" xmlns:xlink="http://www.w3.org/1999/xlink" width="325" height="180" viewBox="0 0 325 180">
  <defs>
    <polygon id="series12-icon-4-a" points="0 .239 64.352 .239 64.352 95 0 95"/>
  </defs>
  <g fill="none" fill-rule="evenodd" transform="translate(98 38)">
    <path fill="#FFF" d="M47.2637 42.7969L17.0877 42.7969C15.9837 42.7969 15.0877 41.9009 15.0877 40.7969 15.0877 39.6929 15.9837 38.7969 17.0877 38.7969L47.2637 38.7969C48.3677 38.7969 49.2637 39.6929 49.2637 40.7969 49.2637 41.9009 48.3677 42.7969 47.2637 42.7969M47.2637 60.0401L17.0877 60.0401C15.9837 60.0401 15.0877 59.1441 15.0877 58.0401 15.0877 56.9361 15.9837 56.0401 17.0877 56.0401L47.2637 56.0401C48.3677 56.0401 49.2637 56.9361 49.2637 58.0401 49.2637 59.1441 48.3677 60.0401 47.2637 60.0401M47.2637 77.2833L17.0877 77.2833C15.9837 77.2833 15.0877 76.3873 15.0877 75.2833 15.0877 74.1793 15.9837 73.2833 17.0877 73.2833L47.2637 73.2833C48.3677 73.2833 49.2637 74.1793 49.2637 75.2833 49.2637 76.3873 48.3677 77.2833 47.2637 77.2833"/>
    <g transform="translate(0 9.937)">
      <mask id="series12-icon-4-b" fill="#fff">
        <use xlink:href="#series12-icon-4-a"/>
      </mask>
      <path fill="#FFF" d="M32.1738,4.2388 C13.4148,4.2388 3.9998,8.8328 3.9998,11.4048 L3.9998,90.6198 C12.5328,89.2108 21.9968,88.4978 32.1738,88.4978 C42.3538,88.4978 51.8198,89.2108 60.3518,90.6198 L60.3518,11.4048 C60.3518,8.8328 50.9358,4.2388 32.1738,4.2388 M62.3518,94.9988 C62.2318,94.9988 62.1108,94.9878 61.9888,94.9658 C53.0918,93.3278 43.0608,92.4978 32.1738,92.4978 C21.2908,92.4978 11.2608,93.3278 2.3618,94.9658 C1.7748,95.0768 1.1758,94.9158 0.7198,94.5358 C0.2638,94.1558 -0.0002,93.5928 -0.0002,92.9988 L-0.0002,11.4048 C-0.0002,3.7328 16.6778,0.2388 32.1738,0.2388 C47.6718,0.2388 64.3518,3.7328 64.3518,11.4048 L64.3518,92.9988 C64.3518,93.5928 64.0878,94.1558 63.6318,94.5358 C63.2698,94.8378 62.8158,94.9988 62.3518,94.9988" mask="url(#series12-icon-4-b)"/>
    </g>
    <path fill="#FFF" d="M127.0127,104.9356 C126.8927,104.9356 126.7717,104.9246 126.6507,104.9026 C118.3807,103.3796 106.1317,102.4346 94.6837,102.4346 C83.4027,102.4346 75.5337,103.3326 62.5947,104.9206 C62.0277,104.9836 61.4537,104.8136 61.0267,104.4336 C60.5977,104.0536 60.3517,103.5086 60.3517,102.9356 L60.3517,21.3416 C60.3517,15.1226 72.2207,12.3956 79.2947,11.3236 C80.3877,11.1576 81.4067,11.9096 81.5727,13.0006 C81.7377,14.0936 80.9867,15.1126 79.8947,15.2786 C68.1507,17.0576 64.3517,20.1316 64.3517,21.3416 L64.3517,100.6756 C76.1437,99.2406 83.8417,98.4346 94.6837,98.4346 C105.4887,98.4346 116.6017,99.2216 125.0127,100.5636 L125.0127,21.3416 C125.0127,20.2176 121.1347,17.1296 109.6127,15.2756 C108.5217,15.0996 107.7797,14.0736 107.9547,12.9836 C108.1307,11.8916 109.1667,11.1436 110.2467,11.3266 C117.2557,12.4546 129.0127,15.2556 129.0127,21.3416 L129.0127,102.9356 C129.0127,103.5296 128.7487,104.0926 128.2927,104.4726 C127.9307,104.7746 127.4767,104.9356 127.0127,104.9356"/>
    <path fill="#FFF" d="M81.5938,4.0001 L81.5938,63.4931 C81.5938,63.5371 81.5938,63.5931 81.6848,63.6351 C81.7728,63.6721 81.8178,63.6391 81.8508,63.6111 L91.9638,54.9421 C93.5198,53.6071 95.8578,53.6181 97.4028,54.9671 L107.2218,63.5511 C107.2548,63.5801 107.2968,63.6191 107.3888,63.5751 C107.4798,63.5341 107.4798,63.4791 107.4798,63.4341 L107.4798,4.0001 L81.5938,4.0001 Z M81.7618,67.6551 C81.1728,67.6551 80.5768,67.5281 80.0128,67.2691 C78.5208,66.5821 77.5938,65.1361 77.5938,63.4931 L77.5938,2.0001 C77.5938,0.8961 78.4898,0.0001 79.5938,0.0001 L109.4798,0.0001 C110.5838,0.0001 111.4798,0.8961 111.4798,2.0001 L111.4798,63.4341 C111.4798,65.0841 110.5458,66.5341 109.0428,67.2171 C107.5408,67.9001 105.8338,67.6501 104.5898,66.5631 C104.5898,66.5631 104.5888,66.5631 104.5888,66.5631 L94.7708,57.9791 C94.7138,57.9291 94.6248,57.9301 94.5688,57.9791 L84.4538,66.6481 C83.6788,67.3131 82.7288,67.6551 81.7618,67.6551 Z"/>
  </g>
</svg>
