<svg xmlns="http://www.w3.org/2000/svg" width="325" height="180" viewBox="0 0 325 180">
  <g fill="#FFF" fill-rule="evenodd" transform="translate(97 44)">
    <path d="M120.2861 70.043C119.1821 70.043 118.2861 69.147 118.2861 68.043L118.2861 6.169C118.2861 4.973 117.3141 4 116.1191 4L14.2401 4C13.0441 4 12.0711 4.973 12.0711 6.169L12.0711 68.043C12.0711 69.147 11.1761 70.043 10.0711 70.043 8.9671 70.043 8.0711 69.147 8.0711 68.043L8.0711 6.169C8.0711 2.768 10.8391 0 14.2401 0L116.1191 0C119.5191 0 122.2861 2.768 122.2861 6.169L122.2861 68.043C122.2861 69.147 121.3901 70.043 120.2861 70.043M4 78.9971L4 85.7931C4 87.1131 5.074 88.1871 6.394 88.1871L123.96 88.1871C125.282 88.1871 126.358 87.1131 126.358 85.7931L126.358 78.9971 73.976 78.9971C73.806 81.2621 71.907 83.0531 69.599 83.0531L60.761 83.0531C58.452 83.0531 56.554 81.2621 56.384 78.9971L4 78.9971zM123.96 92.1871L6.394 92.1871C2.868 92.1871 0 89.3191 0 85.7931L0 76.9971C0 75.8931.896 74.9971 2 74.9971L58.372 74.9971C59.476 74.9971 60.372 75.8931 60.372 76.9971L60.372 78.6661C60.372 78.8791 60.546 79.0531 60.761 79.0531L69.599 79.0531C69.813 79.0531 69.988 78.8791 69.988 78.6661L69.988 76.9971C69.988 75.8931 70.883 74.9971 71.988 74.9971L128.358 74.9971C129.462 74.9971 130.358 75.8931 130.358 76.9971L130.358 85.7931C130.358 89.3191 127.488 92.1871 123.96 92.1871z"/>
    <path d="M47.1753,56.7207 L83.1823,56.7207 L83.1823,52.7387 C70.2613,47.7987 68.6773,45.8277 68.1723,44.2337 C68.1103,44.0377 68.0783,43.8337 68.0783,43.6287 L68.0783,41.6417 C68.0783,41.1137 68.2873,40.6067 68.6593,40.2327 C69.7743,39.1107 70.6413,37.5357 71.1673,35.6797 C71.2943,35.2337 71.5723,34.8437 71.9553,34.5797 C72.2283,34.3917 72.4113,34.0927 72.4573,33.7617 C72.4893,33.5277 72.4673,33.1767 72.1813,32.8297 C71.8853,32.4707 71.7233,32.0207 71.7233,31.5557 L71.7233,27.1077 C71.7233,23.2457 69.5823,21.3687 65.1793,21.3687 C60.8353,21.3687 58.6333,23.2997 58.6333,27.1077 L58.6333,31.5577 C58.6333,32.0227 58.4703,32.4727 58.1753,32.8307 C57.8893,33.1767 57.8683,33.5277 57.9003,33.7607 C57.9463,34.0927 58.1293,34.3907 58.4023,34.5797 C58.7833,34.8437 59.0613,35.2327 59.1883,35.6787 C59.7153,37.5367 60.5833,39.1117 61.6963,40.2317 C62.0693,40.6067 62.2783,41.1137 62.2783,41.6417 L62.2783,43.6287 C62.2783,43.8337 62.2473,44.0367 62.1853,44.2327 C61.6803,45.8257 60.0983,47.7967 47.1753,52.7387 L47.1753,56.7207 Z M83.7653,60.7207 L46.5923,60.7207 C44.7083,60.7207 43.1753,59.1887 43.1753,57.3057 L43.1753,52.3347 C43.1753,50.9267 44.0593,49.6447 45.3753,49.1437 C55.2233,45.3977 57.6783,43.6377 58.2783,43.0517 L58.2783,42.4217 C57.0943,41.0437 56.1553,39.3257 55.5263,37.3837 C54.6693,36.5757 54.1013,35.4897 53.9383,34.3087 C53.7733,33.1177 54.0193,31.9437 54.6333,30.9287 L54.6333,27.1077 C54.6333,21.1007 58.6743,17.3687 65.1793,17.3687 C71.7813,17.3687 75.7233,21.0097 75.7233,27.1077 L75.7233,30.9257 C76.3383,31.9427 76.5843,33.1187 76.4193,34.3117 C76.2553,35.4917 75.6873,36.5787 74.8293,37.3857 C74.2013,39.3247 73.2623,41.0427 72.0783,42.4217 L72.0783,43.0517 C72.6783,43.6377 75.1323,45.3987 84.9793,49.1427 C86.2973,49.6417 87.1823,50.9247 87.1823,52.3347 L87.1823,57.3057 C87.1823,59.1887 85.6493,60.7207 83.7653,60.7207 Z"/>
  </g>
</svg>
